<?xml version="1.0" encoding="UTF-8"?>
<svg width="193px" height="78px" viewBox="0 0 193 78" version="1.1" xmlns="http://www.w3.org/2000/svg" xmlns:xlink="http://www.w3.org/1999/xlink" focusable="false">
   
    <defs>
        <polygon class="path-1" points="0 78 193 78 193 0 0 0"></polygon>
    </defs>
    <g class="3.-Home-(DT-&amp;-Mobile)" stroke="none" stroke-width="1" fill="none" fill-rule="evenodd">
        <g class="AAML---Home-DT" transform="translate(-294.000000, -44.000000)">
            <g class="HEADER-(logo-&amp;-nav)" transform="translate(260.000000, -50.000000)">
                <g class="LOGO" transform="translate(34.000000, 94.000000)">
                    <path d="M59.2493813,0.609142857 L42.423852,41.4435873 L25.5972857,0.609142857 L18.7492766,0.609142857 L1.90300823,41.4920794 L9.0932104,41.4920794 L12.3803377,33.1112063 L14.6398489,27.3870794 L22.1732811,8.44628571 L29.7067133,27.3870794 C28.2352831,27.5686667 18.9867378,27.3870794 18.9867378,27.3870794 L17.0735675,32.9626349 L31.9662245,33.1112063 L35.3217904,41.4920794 L42.403113,41.4920794 L42.443554,41.4920794 L49.5943521,41.4920794 L52.8814795,33.1112063 L55.1409906,27.3870794 L62.6733859,8.44628571 L70.2068181,27.3870794 C68.7353879,27.5686667 59.4878795,27.3870794 59.4878795,27.3870794 L57.5736722,32.9626349 L72.4663293,33.1112063 L75.8229321,41.4920794 L82.9436588,41.4920794 L66.0973904,0.609142857 L59.2493813,0.609142857 Z" class="Fill-1" fill="#002E70"></path>
                    <polygon class="Fill-3" fill="#002E70" points="121.029851 0.60965873 106.375692 19.6887063 91.7889347 0.60965873 86.5834523 0.60965873 86.5834523 41.4925952 93.3640598 41.4925952 93.3640598 13.2155317 105.14276 28.4100556 107.607587 28.4100556 119.454726 13.0102143 119.454726 41.4925952 126.165858 41.4925952 126.098456 0.60965873"></polygon>
                    <polygon class="Fill-5" fill="#002E70" points="142.635713 35.4959841 142.635713 0.60852381 135.856143 0.60852381 135.856143 41.4924921 162.838585 41.4924921 162.838585 35.4959841"></polygon>
                    <path d="M169.359333,16.6852937 C171.356496,17.7139444 173.268629,18.877754 175.085363,20.1695 L175.085363,5.49807143 L169.359333,5.49807143 L169.359333,16.6852937 Z" class="Fill-7" fill="#A18C69"></path>
                    <path d="M179.194169,5.49827778 L179.194169,23.4362143 C181.281547,25.2974841 183.19368,27.3455 184.9202,29.5462143 L184.9202,5.49827778 L179.194169,5.49827778 Z" class="Fill-9" fill="#A18C69"></path>
                    <path d="M159.5246,12.932627 C161.488581,13.436119 163.39553,14.0737381 165.250631,14.8135 L165.250631,5.49786508 L159.5246,5.49786508 L159.5246,12.932627 Z" class="Fill-11" fill="#A18C69"></path>
                    <mask class="mask-2" fill="white">
                        <use xlink:href="#path-1"></use>
                    </mask>
                    <g class="Clip-14"></g>
                    <polygon class="Fill-13" fill="#B03342" mask="url(#mask-2)" points="152.021862 2.08 193 2.08 193 0 152.021862 0"></polygon>
                    <path d="M1.85012384,60.1571905 L5.90977794,60.1571905 L6.61594,61.8647302 L7.77317473,61.8647302 L4.40620235,53.9182222 L3.35369944,53.9182222 L0.000207389737,61.8647302 L1.14396179,61.8647302 L1.85012384,60.1571905 Z M3.88669106,55.2553651 L5.5105527,59.1894127 L2.24934909,59.1894127 L3.88669106,55.2553651 Z" class="Fill-15" fill="#A18C69" mask="url(#mask-2)"></path>
                    <polygon class="Fill-16" fill="#A18C69" mask="url(#mask-2)" points="12.7583055 55.983881 15.2604627 59.1626905 15.6202839 59.1626905 18.1224411 55.959119 18.1224411 61.8638016 19.2133111 61.8638016 19.2133111 53.9183254 18.4148606 53.9183254 15.4460765 57.7326905 12.4648491 53.9183254 11.6663986 53.9183254 11.6529182 61.8638016 12.7583055 61.8638016"></polygon>
                    <polygon class="Fill-17" fill="#A18C69" mask="url(#mask-2)" points="24.0301451 61.8650397 29.6597395 61.8650397 29.6597395 60.8714683 25.1220521 60.8714683 25.1220521 58.3282143 28.9950554 58.3282143 28.9950554 57.3614683 25.1220521 57.3614683 25.1220521 54.9121032 29.6597395 54.9121032 29.6597395 53.9185317 24.0301451 53.9185317"></polygon>
                    <path d="M38.380789,59.0438333 C39.4457353,58.7002619 40.1373801,57.8521667 40.1373801,56.5676429 C40.1373801,54.8858968 38.9791084,53.918119 37.088751,53.918119 L33.894949,53.918119 L33.894949,61.864627 L34.9858191,61.864627 L34.9858191,59.2305794 L37.1561527,59.2305794 L39.1522789,61.864627 L40.3364743,61.864627 L40.3364743,61.653119 L38.380789,59.0974841 L38.380789,59.0438333 Z M37.1426723,58.2483571 L34.9858191,58.2483571 L34.9858191,54.9127222 L37.0493469,54.9127222 C38.2335423,54.9127222 39.0060691,55.4543889 39.0060691,56.5934365 C39.0060691,57.7190714 38.2335423,58.2483571 37.1426723,58.2483571 L37.1426723,58.2483571 Z" class="Fill-18" fill="#A18C69" mask="url(#mask-2)"></path>
                    <polygon class="Fill-19" fill="#A18C69" mask="url(#mask-2)" points="44.5867195 61.8645238 45.6786265 61.8645238 45.6786265 53.9180159 44.5867195 53.9180159"></polygon>
                    <path d="M54.0191159,62.051373 C55.8296283,62.051373 56.6809631,61.0433571 56.6809631,61.0433571 L56.0422027,60.1973254 C56.0422027,60.1973254 55.2966366,61.0175635 54.0325962,61.0175635 C52.3288895,61.0175635 51.1436572,59.6267698 51.1436572,57.903754 C51.1436572,56.1704206 52.3288895,54.779627 54.0325962,54.779627 C55.2966366,54.779627 56.0422027,55.6008968 56.0422027,55.6008968 L56.6809631,54.7528016 C56.6809631,54.7528016 55.8296283,53.7458175 54.0191159,53.7458175 C51.6092471,53.7458175 50.0123461,55.5740714 50.0123461,57.903754 C50.0123461,60.2097063 51.6092471,62.051373 54.0191159,62.051373" class="Fill-20" fill="#A18C69" mask="url(#mask-2)"></path>
                    <path d="M61.9131988,60.1571905 L65.9728529,60.1571905 L66.679015,61.8636984 L67.8362497,61.8636984 L64.4692773,53.9182222 L63.4167744,53.9182222 L60.0632823,61.8636984 L61.2080737,61.8636984 L61.9131988,60.1571905 Z M63.949766,55.2563968 L65.5746646,59.1904444 L62.312424,59.1904444 L63.949766,55.2563968 Z" class="Fill-21" fill="#A18C69" mask="url(#mask-2)"></path>
                    <polygon class="Fill-22" fill="#A18C69" mask="url(#mask-2)" points="78.484572 61.8650397 78.484572 53.9185317 77.3802217 53.9185317 77.3802217 59.8913095 72.5345605 53.9185317 71.7226297 53.9185317 71.7226297 61.8650397 72.8145366 61.8650397 72.8145366 55.8396429 77.6726412 61.8650397"></polygon>
                    <path d="M94.6514316,61.8650397 L95.8097033,61.8650397 L92.4416939,53.9185317 L91.390228,53.9185317 L88.035699,61.8650397 L89.1804903,61.8650397 L89.8856154,60.1575 L93.9452695,60.1575 L94.6514316,61.8650397 Z M90.2858776,59.190754 L91.9232196,55.2556746 L93.5470812,59.190754 L90.2858776,59.190754 Z" class="Fill-23" fill="#A18C69" mask="url(#mask-2)"></path>
                    <path d="M105.518135,61.043873 L104.878338,60.1968095 C104.878338,60.1968095 104.133809,61.0180794 102.869768,61.0180794 C101.166062,61.0180794 99.9808293,59.6272857 99.9808293,57.9042698 C99.9808293,56.1699048 101.166062,54.7791111 102.869768,54.7791111 C104.133809,54.7791111 104.878338,55.6024444 104.878338,55.6024444 L105.518135,54.7522857 C105.518135,54.7522857 104.6668,53.7463333 102.856288,53.7463333 C100.445382,53.7463333 98.8484814,55.5735556 98.8484814,57.9042698 C98.8484814,60.2091905 100.445382,62.0518889 102.856288,62.0518889 C104.6668,62.0518889 105.518135,61.043873 105.518135,61.043873" class="Fill-24" fill="#A18C69" mask="url(#mask-2)"></path>
                    <path d="M113.305413,53.9183254 L112.253947,53.9183254 L108.899418,61.8648333 L110.044209,61.8648333 L110.750371,60.1562619 L114.808988,60.1562619 L115.51515,61.8648333 L116.673422,61.8648333 L113.305413,53.9183254 Z M111.148559,59.1905476 L112.786938,55.2554683 L114.409763,59.1905476 L111.148559,59.1905476 Z" class="Fill-25" fill="#A18C69" mask="url(#mask-2)"></path>
                    <path d="M127.37411,57.8921984 C127.37411,55.4810079 125.738842,53.9179127 123.288532,53.9179127 L120.56032,53.9179127 L120.56032,61.8654524 L123.288532,61.8654524 C125.738842,61.8654524 127.37411,60.3013254 127.37411,57.8921984 M123.221131,60.871881 L121.650153,60.871881 L121.650153,54.9114841 L123.221131,54.9114841 C124.925874,54.9114841 126.242799,55.9979127 126.242799,57.8921984 C126.242799,59.7720397 124.925874,60.871881 123.221131,60.871881" class="Fill-26" fill="#A18C69" mask="url(#mask-2)"></path>
                    <polygon class="Fill-27" fill="#A18C69" mask="url(#mask-2)" points="137.328403 60.8715714 132.788641 60.8715714 132.788641 58.3283175 136.660608 58.3283175 136.660608 57.3615714 132.788641 57.3615714 132.788641 54.9122063 137.328403 54.9122063 137.328403 53.9186349 131.696734 53.9186349 131.696734 61.8651429 137.328403 61.8651429"></polygon>
                    <polygon class="Fill-28" fill="#A18C69" mask="url(#mask-2)" points="145.348579 57.733 142.368388 53.9186349 141.567864 53.9186349 141.556457 61.8641111 142.660808 61.8641111 142.660808 55.9841905 145.164002 59.163 145.521749 59.163 148.023906 55.9583968 148.023906 61.8641111 149.115813 61.8641111 149.115813 53.9186349 148.316326 53.9186349"></polygon>
                    <polygon class="Fill-29" fill="#A18C69" mask="url(#mask-2)" points="156.749933 57.2816111 156.484474 57.8377222 156.457514 57.8377222 156.205535 57.2816111 154.247776 53.918119 152.997216 53.918119 155.911042 58.8189127 155.911042 61.864627 157.017466 61.864627 157.017466 58.8189127 159.930255 53.918119 158.680732 53.918119"></polygon>
                    <path d="M172.916793,53.7460238 C170.520404,53.7460238 168.962907,55.573246 168.962907,57.9049921 C168.962907,60.2099127 170.520404,62.0495159 172.916793,62.0495159 C175.352585,62.0495159 176.910082,60.2099127 176.910082,57.9049921 C176.910082,55.573246 175.352585,53.7460238 172.916793,53.7460238 M172.916793,61.0043571 C171.199606,61.0043571 170.094218,59.6269762 170.094218,57.9049921 C170.094218,56.170627 171.199606,54.7788016 172.916793,54.7788016 C174.66094,54.7788016 175.778771,56.170627 175.778771,57.9049921 C175.778771,59.6269762 174.66094,61.0043571 172.916793,61.0043571" class="Fill-30" fill="#A18C69" mask="url(#mask-2)"></path>
                    <polygon class="Fill-31" fill="#A18C69" mask="url(#mask-2)" points="186.892269 54.9117937 186.892269 53.9182222 181.249194 53.9182222 181.249194 61.8647302 182.340064 61.8647302 182.340064 58.3289365 186.213067 58.3289365 186.213067 57.3611587 182.340064 57.3611587 182.340064 54.9117937"></polygon>
                    <polygon class="Fill-32" fill="#A18C69" mask="url(#mask-2)" points="4.75192104 73.6827619 1.77069357 69.8673651 0.972243087 69.8673651 0.958762754 77.813873 2.0631131 77.813873 2.0631131 71.9339524 4.56527028 75.1127619 4.92509147 75.1127619 7.42724865 71.907127 7.42724865 77.813873 8.51915561 77.813873 8.51915561 69.8673651 7.72070513 69.8673651"></polygon>
                    <path d="M15.7537392,69.8670556 L12.3992102,77.8135635 L13.5440015,77.8135635 L14.2501636,76.1060238 L18.3087808,76.1060238 L19.0149428,77.8135635 L20.1721775,77.8135635 L16.8041682,69.8670556 L15.7537392,69.8670556 Z M14.6493888,75.1392778 L16.2867308,71.2041984 L17.9095555,75.1392778 L14.6493888,75.1392778 Z" class="Fill-33" fill="#A18C69" mask="url(#mask-2)"></path>
                    <polygon class="Fill-34" fill="#A18C69" mask="url(#mask-2)" points="22.4144754 70.8615556 24.9964776 70.8615556 24.9964776 77.8144921 26.0883846 77.8144921 26.0883846 70.8615556 28.6838671 70.8615556 28.6838671 69.8669524 22.4144754 69.8669524"></polygon>
                    <path d="M37.1767879,74.9935952 C38.2406973,74.6489921 38.934416,73.8019286 38.934416,72.5174048 C38.934416,70.834627 37.7761443,69.8668492 35.8847499,69.8668492 L32.6909479,69.8668492 L32.6909479,77.8133571 L33.7828549,77.8133571 L33.7828549,75.1793095 L35.9521515,75.1793095 L37.9493147,77.8133571 L39.1324731,77.8133571 L39.1324731,77.6018492 L37.1767879,75.0462143 L37.1767879,74.9935952 Z M35.9386712,74.198119 L33.7828549,74.198119 L33.7828549,70.8614524 L35.8453458,70.8614524 C37.0305782,70.8614524 37.802068,71.4041508 37.802068,72.5431984 C37.802068,73.6688333 37.0305782,74.198119 35.9386712,74.198119 L35.9386712,74.198119 Z" class="Fill-35" fill="#A18C69" mask="url(#mask-2)"></path>
                    <polygon class="Fill-36" fill="#A18C69" mask="url(#mask-2)" points="43.3828221 77.8142857 44.4747291 77.8142857 44.4747291 69.8677778 43.3828221 69.8677778"></polygon>
                    <polygon class="Fill-37" fill="#A18C69" mask="url(#mask-2)" points="53.0561016 73.6827619 50.0748741 69.8673651 49.2764237 69.8673651 49.2629433 77.813873 50.3672937 77.813873 50.3672937 71.9339524 52.8694508 75.1127619 53.229272 75.1127619 55.7314292 71.907127 55.7314292 77.813873 56.8233362 77.813873 56.8233362 69.8673651 56.0248857 69.8673651"></polygon>
                    <path d="M65.1161259,69.6957857 C62.7207744,69.6957857 61.1632775,71.5230079 61.1632775,73.8537222 C61.1632775,76.1586429 62.7207744,78.0003095 65.1161259,78.0003095 C67.5519184,78.0003095 69.1094153,76.1586429 69.1094153,73.8537222 C69.1094153,71.5230079 67.5519184,69.6957857 65.1161259,69.6957857 M65.1161259,76.954119 C63.3999758,76.954119 62.2945885,75.5757063 62.2945885,73.8537222 C62.2945885,72.1193571 63.3999758,70.7285635 65.1161259,70.7285635 C66.8602736,70.7285635 67.9781043,72.1193571 67.9781043,73.8537222 C67.9781043,75.5757063 66.8602736,76.954119 65.1161259,76.954119" class="Fill-38" fill="#A18C69" mask="url(#mask-2)"></path>
                    <polygon class="Fill-39" fill="#A18C69" mask="url(#mask-2)" points="79.1063265 75.8399365 74.2606653 69.8671587 73.4487344 69.8671587 73.4487344 77.8136667 74.5406414 77.8136667 74.5406414 71.7882698 79.398746 77.8136667 80.2106768 77.8136667 80.2106768 69.8671587 79.1063265 69.8671587"></polygon>
                    <polygon class="Fill-40" fill="#A18C69" mask="url(#mask-2)" points="85.031866 77.8142857 86.123773 77.8142857 86.123773 69.8677778 85.031866 69.8677778"></polygon>
                    <path d="M93.3416617,69.8670556 L89.9881697,77.8135635 L91.1319241,77.8135635 L91.8380861,76.1060238 L95.8977402,76.1060238 L96.6028653,77.8135635 L97.761137,77.8135635 L94.3941646,69.8670556 L93.3416617,69.8670556 Z M92.2373113,75.1392778 L93.8746533,71.2041984 L95.498515,75.1392778 L92.2373113,75.1392778 Z" class="Fill-41" fill="#A18C69" mask="url(#mask-2)"></path>
                    <polygon class="Fill-42" fill="#A18C69" mask="url(#mask-2)" points="102.738491 69.8670556 101.646584 69.8670556 101.646584 77.8135635 106.798145 77.8135635 106.798145 76.8199921 102.738491 76.8199921"></polygon>
                    <polygon class="Fill-43" fill="#A18C69" mask="url(#mask-2)" points="117.693157 69.8670556 116.60125 69.8670556 116.60125 77.8135635 121.752811 77.8135635 121.752811 76.8199921 117.693157 76.8199921"></polygon>
                    <path d="M128.6227,69.8670556 L125.268171,77.8135635 L126.411925,77.8135635 L127.119124,76.1060238 L131.178779,76.1060238 L131.883904,77.8135635 L133.042175,77.8135635 L129.674166,69.8670556 L128.6227,69.8670556 Z M127.517313,75.1392778 L129.154655,71.2041984 L130.778516,75.1392778 L127.517313,75.1392778 Z" class="Fill-44" fill="#A18C69" mask="url(#mask-2)"></path>
                    <polygon class="Fill-45" fill="#A18C69" mask="url(#mask-2)" points="142.797685 76.0132698 141.134419 69.8671587 140.149318 69.8671587 138.471535 76.0132698 136.647542 69.8671587 135.489271 69.8671587 138.098233 77.8146984 138.950605 77.8146984 140.641869 71.6427937 142.332095 77.8146984 143.19691 77.8146984 145.805873 69.8671587 144.647601 69.8671587"></polygon>
                    <polygon class="Fill-46" fill="#A18C69" mask="url(#mask-2)" points="153.02034 73.231373 152.753844 73.7874841 152.72792 73.7874841 152.474905 73.231373 150.51922 69.8668492 149.267622 69.8668492 152.182485 74.7676429 152.182485 77.8133571 153.287873 77.8133571 153.287873 74.7676429 156.202735 69.8668492 154.951138 69.8668492"></polygon>
                    <polygon class="Fill-47" fill="#A18C69" mask="url(#mask-2)" points="160.081546 77.8137698 165.712177 77.8137698 165.712177 76.8201984 161.173453 76.8201984 161.173453 74.2769444 165.044382 74.2769444 165.044382 73.3122619 161.173453 73.3122619 161.173453 70.8618651 165.712177 70.8618651 165.712177 69.8672619 160.081546 69.8672619"></polygon>
                    <path d="M174.430738,74.9935952 C175.496721,74.6489921 176.189403,73.8019286 176.189403,72.5174048 C176.189403,70.834627 175.030094,69.8668492 173.141811,69.8668492 L169.946972,69.8668492 L169.946972,77.8133571 L171.038879,77.8133571 L171.038879,75.1793095 L173.206101,75.1793095 L175.204301,77.8133571 L176.389534,77.8133571 L176.389534,77.6018492 L174.430738,75.0462143 L174.430738,74.9935952 Z M173.194695,74.198119 L171.038879,74.198119 L171.038879,70.8614524 L173.102406,70.8614524 C174.285565,70.8614524 175.058092,71.4041508 175.058092,72.5431984 C175.058092,73.6688333 174.285565,74.198119 173.194695,74.198119 L173.194695,74.198119 Z" class="Fill-48" fill="#A18C69" mask="url(#mask-2)"></path>
                    <path d="M183.251853,73.2051667 C181.761758,72.7677063 181.296168,72.4623095 181.296168,71.8680238 C181.296168,71.1251667 181.987812,70.7145317 182.998837,70.7145317 C184.356203,70.7145317 185.088289,71.3903254 185.088289,71.3903254 L185.688682,70.4906429 C185.688682,70.4906429 184.915118,69.6951667 182.998837,69.6951667 C181.175882,69.6951667 180.124416,70.5577063 180.124416,71.8804048 C180.124416,73.1123095 180.96227,73.6962778 182.759302,74.2379444 C184.329242,74.7022302 184.742985,75.0458016 184.742985,75.7205635 C184.742985,76.4634206 184.209993,76.9792937 182.96047,76.9792937 C181.535703,76.9792937 180.683331,76.2106429 180.683331,76.2106429 L180.083975,77.0329444 C180.083975,77.0329444 181.001674,77.9996905 182.985357,77.9996905 C184.943116,77.9996905 185.92718,76.9927063 185.92718,75.6813571 C185.92718,74.475246 185.235536,73.7746905 183.251853,73.2051667" class="Fill-49" fill="#A18C69" mask="url(#mask-2)"></path>
                    <polygon class="Fill-50" fill="#002E70" mask="url(#mask-2)" points="165.971103 35.240627 168.912926 35.240627 168.912926 35.7069762 167.694512 35.7069762 167.694512 38.9693571 167.183296 38.9693571 167.183296 35.7069762 165.971103 35.7069762"></polygon>
                    <polygon class="Fill-51" fill="#002E70" mask="url(#mask-2)" points="172.589739 36.1972619 171.414876 37.7015476 171.245854 37.7015476 170.072028 36.2096429 170.072028 38.9685317 169.553553 38.9685317 169.559775 35.2408333 169.934113 35.2408333 171.332957 37.029881 172.727653 35.2408333 173.100955 35.2408333 173.100955 38.9685317 172.589739 38.9685317"></polygon>
                </g>
            </g>
        </g>
    </g>
</svg>