<svg xmlns="http://www.w3.org/2000/svg" xmlns:xlink="http://www.w3.org/1999/xlink" id="Layer_1" viewBox="0 0 180.4 67.3"><defs><style>      .st0 {        mask: url(#mask);      }      .st1 {        mask: url(#mask-2);      }      .st2 {        mask: url(#mask-3);      }      .st3 {        mask: url(#mask-4);      }      .st4 {        mask: url(#mask-5);      }      .st5 {        mask: url(#mask-7);      }      .st6 {        mask: url(#mask-6);      }      .st7 {        mask: url(#mask-1);      }      .st8 {        mask: url(#mask-9);      }      .st9 {        mask: url(#mask-8);      }      .st10 {        fill: #fff;      }      .st11 {        mask: url(#mask-50);      }      .st12 {        mask: url(#mask-54);      }      .st13 {        mask: url(#mask-51);      }      .st14 {        mask: url(#mask-53);      }      .st15 {        mask: url(#mask-52);      }      .st16 {        mask: url(#mask-55);      }      .st17 {        mask: url(#mask-60);      }      .st18 {        mask: url(#mask-64);      }      .st19 {        mask: url(#mask-62);      }      .st20 {        mask: url(#mask-61);      }      .st21 {        mask: url(#mask-66);      }      .st22 {        mask: url(#mask-65);      }      .st23 {        mask: url(#mask-56);      }      .st24 {        mask: url(#mask-77);      }      .st25 {        mask: url(#mask-69);      }      .st26 {        mask: url(#mask-68);      }      .st27 {        mask: url(#mask-67);      }      .st28 {        mask: url(#mask-41);      }      .st29 {        mask: url(#mask-59);      }      .st30 {        mask: url(#mask-31);      }      .st31 {        mask: url(#mask-35);      }      .st32 {        mask: url(#mask-30);      }      .st33 {        mask: url(#mask-34);      }      .st34 {        mask: url(#mask-33);      }      .st35 {        mask: url(#mask-57);      }      .st36 {        mask: url(#mask-44);      }      .st37 {        mask: url(#mask-43);      }      .st38 {        mask: url(#mask-40);      }      .st39 {        mask: url(#mask-46);      }      .st40 {        mask: url(#mask-45);      }      .st41 {        mask: url(#mask-42);      }      .st42 {        mask: url(#mask-58);      }      .st43 {        mask: url(#mask-32);      }      .st44 {        mask: url(#mask-10);      }      .st45 {        mask: url(#mask-14);      }      .st46 {        mask: url(#mask-18);      }      .st47 {        mask: url(#mask-11);      }      .st48 {        mask: url(#mask-16);      }      .st49 {        mask: url(#mask-13);      }      .st50 {        mask: url(#mask-19);      }      .st51 {        mask: url(#mask-12);      }      .st52 {        mask: url(#mask-17);      }      .st53 {        mask: url(#mask-15);      }      .st54 {        mask: url(#mask-22);      }      .st55 {        mask: url(#mask-21);      }      .st56 {        mask: url(#mask-20);      }      .st57 {        mask: url(#mask-36);      }      .st58 {        mask: url(#mask-25);      }      .st59 {        mask: url(#mask-24);      }      .st60 {        mask: url(#mask-23);      }      .st61 {        mask: url(#mask-39);      }      .st62 {        mask: url(#mask-38);      }      .st63 {        mask: url(#mask-37);      }      .st64 {        mask: url(#mask-49);      }      .st65 {        mask: url(#mask-71);      }      .st66 {        mask: url(#mask-72);      }      .st67 {        mask: url(#mask-75);      }      .st68 {        mask: url(#mask-70);      }      .st69 {        mask: url(#mask-73);      }      .st70 {        mask: url(#mask-63);      }      .st71 {        mask: url(#mask-48);      }      .st72 {        mask: url(#mask-47);      }      .st73 {        mask: url(#mask-74);      }      .st74 {        mask: url(#mask-76);      }      .st75 {        mask: url(#mask-28);      }      .st76 {        mask: url(#mask-29);      }      .st77 {        mask: url(#mask-26);      }      .st78 {        mask: url(#mask-27);      }    </style><mask id="mask" x="43.2" y="38.8" width="2.2" height="2.2" maskUnits="userSpaceOnUse"><g id="mask0_416_4375"><path class="st10" d="M43.9,39.4c0,.3,0,.6-.2.9h0s.2.2.2.2h0s0,0,0,0h0c0,0,.1-.1.2-.2h.1c0,0,0-.1,0-.1,0,0,0,0,0,0,0,0,.2-.1.3-.2h0s-.9-.5-.9-.5h0c0,0,0,0,0,0Z"></path></g></mask><mask id="mask-1" x="43.2" y="36.7" width="3.8" height="3.8" maskUnits="userSpaceOnUse"><g id="mask1_416_4375"><path class="st10" d="M44,38h0c0,.3,0,.5,0,.8h0s1.3.7,1.3.7h0s0,0,.1,0h0c.1-.1.3-.2.4-.3,0,0,0,0,0,0,.1,0,.2-.2.3-.3h0c0,0-2.3-.9-2.3-.9h0c0,.1,0,.1,0,.1Z"></path></g></mask><mask id="mask-2" x="43.1" y="34.7" width="5.4" height="5.3" maskUnits="userSpaceOnUse"><g id="mask2_416_4375"><path class="st10" d="M44,36.6c0,.2,0,.5,0,.7h0s2.8.9,2.8.9h0s0,0,0,0c0,0,0,0,0,0,0,0,0,0,0,0,0,0,.1-.1.2-.2h0c0-.1,0-.1,0-.2,0,0,0,0,0,0,0,0,.2-.2.3-.3h0c0,0-3.6-.9-3.6-.9h0s0,0,0,0h0Z"></path></g></mask><mask id="mask-3" x="43.1" y="32.7" width="6.6" height="6.5" maskUnits="userSpaceOnUse"><g id="mask3_416_4375"><path class="st10" d="M43.8,35.3c0,.3,0,.5,0,.7h0s4.3.7,4.3.7h0s0,0,0,0c0,0,0,0,0,0,0,0,0,0,0,0,0,0,.1-.1.2-.2h0c0-.1,0-.2,0-.2s0,0,0,0c0-.1.2-.2.2-.3h0c0,0-5.2-.5-5.2-.5h0c0,0,0,0,0,0Z"></path></g></mask><mask id="mask-4" x="43" y="30.4" width="7.8" height="7.6" maskUnits="userSpaceOnUse"><g id="mask4_416_4375"><path class="st10" d="M43.6,34h0,0c0,.3,0,.5.1.7h0s5.8.1,5.8.1h0v-.2c.1,0,.2,0,.2,0,0,0,0-.1.1-.2,0,0,0,0,0-.1h0c0,0,.2-.4.2-.5h0c0,0-6.6.2-6.6.2h0Z"></path></g></mask><mask id="mask-5" x="42.2" y="27.5" width="10.1" height="9.9" maskUnits="userSpaceOnUse"><g id="mask5_416_4375"><path class="st10" d="M43.3,32.8h0,0c0,.3.1.4.2.6h0s7.3-.8,7.3-.8h0s0-.1,0-.2h0c0,0,0-.2,0-.2,0-.1,0-.2.1-.3,0,0,0,0,0,0,0-.2.1-.3.2-.5h0c0,0-7.9,1.4-7.9,1.4h0Z"></path></g></mask><mask id="mask-6" x="41.1" y="24.3" width="12.5" height="12.4" maskUnits="userSpaceOnUse"><g id="mask6_416_4375"><path class="st10" d="M42.9,31.7h0s0,0,0,0c0,.2.1.4.2.5h0s8.5-2.1,8.5-2.1h0c0-.1,0-.1,0-.2h0c0,0,0-.2,0-.2,0-.1,0-.2,0-.3,0,0,0,0,0,0,0-.2,0-.4.1-.6h0c0,0-9,2.9-9,2.9h0Z"></path></g></mask><mask id="mask-7" x="39.8" y="21.1" width="15" height="14.8" maskUnits="userSpaceOnUse"><g id="mask7_416_4375"><path class="st10" d="M42.4,30.6h0s0,.1,0,.1c0,.1.1.3.2.5h0s9.4-3.8,9.4-3.8h0c0-.1,0-.2,0-.2h0c0,0,0-.2,0-.2,0,0,0-.2,0-.3h0c0-.3,0-.5,0-.7h0c0,0-9.7,4.6-9.7,4.6h0Z"></path></g></mask><mask id="mask-8" x="38.3" y="17.9" width="17.3" height="17.2" maskUnits="userSpaceOnUse"><g id="mask8_416_4375"><path class="st10" d="M41.9,29.6h0s0,0,0,0l.2.4h0c0,.1,9.9-5.7,9.9-5.7h0c0-.1,0-.2,0-.2h0c0,0,0-.2,0-.2,0,0,0-.2,0-.2,0,0,0,0,0,0,0-.2,0-.4,0-.6h0c0,0-10,6.6-10,6.6Z"></path></g></mask><mask id="mask-9" x="36.8" y="14.8" width="19.3" height="19.3" maskUnits="userSpaceOnUse"><g id="mask9_416_4375"><path class="st10" d="M41.3,28.5h0s0,0,0,0c0,.1.2.3.3.5h0c0,0,10-7.8,10-7.8h0c0-.1,0-.2,0-.3h0c0,0,0-.2,0-.2,0,0,0-.1,0-.2,0,0,0,0,0,0,0-.2-.1-.4-.2-.6h0c0,0-9.8,8.6-9.8,8.6h0Z"></path></g></mask><mask id="mask-10" x="35.2" y="12.1" width="20.7" height="20.8" maskUnits="userSpaceOnUse"><g id="mask10_416_4375"><path class="st10" d="M40.6,27.5h0s0,0,0,0c.1.1.2.3.3.5h0c0,0,9.5-9.7,9.5-9.7h0c0-.1,0-.2-.1-.3h0c0,0,0-.2,0-.2,0,0,0-.1,0-.2,0,0,0,0,0,0-.1-.2-.2-.4-.3-.6h0c0,0-9.2,10.5-9.2,10.5Z"></path></g></mask><mask id="mask-11" x="33.6" y="9.8" width="21.3" height="21.5" maskUnits="userSpaceOnUse"><g id="mask11_416_4375"><path class="st10" d="M39.9,26.4h0s0,0,0,0c.1.1.2.3.3.5h0c0,0,8.5-11.5,8.5-11.5h0s0,0,0,0c0,0-.1-.1-.2-.2h0c0,0,0-.2,0-.2,0,0,0,0-.1-.1,0,0,0,0,0,0-.1-.2-.3-.4-.4-.5h0c0,0-8,12.1-8,12.1h0Z"></path></g></mask><mask id="mask-12" x="32.2" y="8.2" width="21.1" height="21.3" maskUnits="userSpaceOnUse"><g id="mask12_416_4375"><path class="st10" d="M39,25.3h0c.1.2.2.4.4.5h0c0,0,7.1-13,7.1-13,0,0-.3-.2-.3-.3,0,0,0,0,0,0,0,0,0,0,0,0h0c0,0,0,0,0-.1,0,0-.4-.3-.5-.4h0s-6.4,13.4-6.4,13.4Z"></path></g></mask><mask id="mask-13" x="30.8" y="7.2" width="20" height="20.3" maskUnits="userSpaceOnUse"><g id="mask13_416_4375"><path class="st10" d="M37.9,24.1h0c.1.2.3.3.4.5h0c0,0,5.3-13.8,5.3-13.8h0s0,0,0,0c0,0-.3-.2-.3-.2,0,0-.2-.1-.2-.1,0,0-.7-.4-.7-.4l-4.5,14.1h0Z"></path></g></mask><mask id="mask-14" x="29.6" y="6.9" width="18" height="18.3" maskUnits="userSpaceOnUse"><g id="mask14_416_4375"><path class="st10" d="M36.7,22.8h0s0,0,0,0c.2.2.3.3.5.5h0c0,0,3.2-14.1,3.2-14.1h0c0,0-1.3-.5-1.3-.5l-2.5,14Z"></path></g></mask><mask id="mask-15" x="28.5" y="7.3" width="15.2" height="15.6" maskUnits="userSpaceOnUse"><g id="mask15_416_4375"><path class="st10" d="M35.1,21.3h0s0,0,0,0c.2.2.4.3.6.5h0c0,0,1.2-13.6,1.2-13.6h0c-.1,0-1-.1-1.2-.1h0l-.5,13.1h0Z"></path></g></mask><mask id="mask-16" x="25.4" y="7.3" width="15.3" height="15.7" maskUnits="userSpaceOnUse"><g id="mask16_416_4375"><path class="st10" d="M33.4,8.2c-.4,0-1.2,0-1.2,0l1.3,13.7.7-.6-.6-13.2h0"></path></g></mask><mask id="mask-17" x="21.5" y="6.7" width="18.2" height="18.5" maskUnits="userSpaceOnUse"><g id="mask17_416_4375"><path class="st10" d="M28.6,8.9l3.4,14.5.5-.5-2.6-14.2h0s-1.2.2-1.2.2Z"></path></g></mask><mask id="mask-18" x="17.9" y="6.6" width="20.7" height="21" maskUnits="userSpaceOnUse"><g id="mask18_416_4375"><path class="st10" d="M25.3,9.9l5.6,14.7.4-.5-4.9-14.7-1.1.4Z"></path></g></mask><mask id="mask-19" x="14.8" y="6.9" width="22.7" height="22.9" maskUnits="userSpaceOnUse"><g id="mask19_416_4375"><path class="st10" d="M22,11.4l7.9,14.4.3-.4-7.1-14.5h0s-1,.5-1,.5Z"></path></g></mask><mask id="mask-20" x="12.2" y="7.7" width="24" height="24.1" maskUnits="userSpaceOnUse"><g id="mask20_416_4375"><path class="st10" d="M19.1,13.3l9.9,13.5c0,0,.1,0,.2,0h.2c0,0,0-.1,0-.1h0s-9.4-13.9-9.4-13.9h0s-.9.6-.9.6Z"></path></g></mask><mask id="mask-21" x="10.4" y="9.2" width="23.8" height="23.8" maskUnits="userSpaceOnUse"><g id="mask21_416_4375"><path class="st10" d="M16.4,15.6l11.3,11.7c0,0,.1,0,.2,0h0s0,0,0,0h.2c0,0-11-12.3-11-12.3h0s-.8.7-.8.7h0Z"></path></g></mask><mask id="mask-22" x="8.9" y="11.2" width="23" height="22.9" maskUnits="userSpaceOnUse"><g id="mask22_416_4375"><path class="st10" d="M14,18.2l12.3,9.7c0,0,.1,0,.2-.1h.1c0,0,.2,0,.2,0l-12.1-10.3h0s-.6.7-.6.7h0Z"></path></g></mask><mask id="mask-23" x="7.9" y="13.8" width="21.6" height="21.5" maskUnits="userSpaceOnUse"><g id="mask23_416_4375"><path class="st10" d="M12,21.1l12.9,7.6c0,0,.1,0,.2-.1h0s.1,0,.1,0h.2c0-.1-12.9-8.3-12.9-8.3h0s-.5.8-.5.8h0Z"></path></g></mask><mask id="mask-24" x="7.3" y="16.9" width="19.8" height="19.5" maskUnits="userSpaceOnUse"><g id="mask24_416_4375"><path class="st10" d="M10.4,24.3l13.1,5.5c0,0,.1,0,.2-.2h0s0,0,0,0h0s.2,0,.2,0l-13.2-6.1h0s-.4.8-.4.8Z"></path></g></mask><mask id="mask-25" x="7.2" y="20.4" width="17.5" height="17.2" maskUnits="userSpaceOnUse"><g id="mask25_416_4375"><path class="st10" d="M9.3,27.6l12.8,3.5s0-.1.1-.1h0c0,0,.1,0,.1,0h.1c0-.1-13-4.1-13-4.1h0l-.2.8h0Z"></path></g></mask><mask id="mask-26" x="7.4" y="24.2" width="14.9" height="14.6" maskUnits="userSpaceOnUse"><g id="mask26_416_4375"><path class="st10" d="M8.6,31.1l12.1,1.6c0,0,0-.1.1-.2h0c0,0,0,0,0,0h0s.1-.1.1-.1l-12.5-2v.8Z"></path></g></mask><mask id="mask-27" x="8" y="28.3" width="12.2" height="11.9" maskUnits="userSpaceOnUse"><g id="mask27_416_4375"><path class="st10" d="M8.4,34.6h11.1c0,0,.2-.3.2-.3h.1v-.2c.1,0-11.4-.2-11.4-.2v.7h0Z"></path></g></mask><mask id="mask-28" x="7.6" y="31.3" width="12" height="11.7" maskUnits="userSpaceOnUse"><g id="mask28_416_4375"><path class="st10" d="M8.6,37.5h0v.7c0,0,9.9-1.4,9.9-1.4,0,0,0,0,0,0h0s0,0,0-.1h0c0,0,.1-.1.1-.1v-.2c0,0-10.1,1.2-10.1,1.2Z"></path></g></mask><mask id="mask-29" x="7.8" y="34.5" width="11.4" height="11.3" maskUnits="userSpaceOnUse"><g id="mask29_416_4375"><path class="st10" d="M9.2,41h0l.2.6,8.3-2.3s0,0,0,0c0,0,0,0,0-.1h0c0,0,0,0,0,0h0c0,0,0-.1,0-.1h0c0,0-8.6,2.1-8.6,2.1h0Z"></path></g></mask><mask id="mask-30" x="8.7" y="38.1" width="10.4" height="10.3" maskUnits="userSpaceOnUse"><g id="mask30_416_4375"><path class="st10" d="M10.4,44.4h0s.2.5.2.5h0s6.7-2.8,6.7-2.8h0c0-.1,0-.2,0-.2h0c0,0,0,0,0,0h0s0-.1,0-.2h0c0,0-7,2.8-7,2.8h0Z"></path></g></mask><mask id="mask-31" x="10.2" y="41.9" width="8.9" height="8.9" maskUnits="userSpaceOnUse"><g id="mask31_416_4375"><path class="st10" d="M11.9,47.6h0c0,.2.1.3.2.4h0c0,0,5.1-3,5.1-3h0v-.3h0s0,0,0,0h0v-.2l-5.4,3.2h0Z"></path></g></mask><mask id="mask-32" x="14.9" y="49.3" width="5.5" height="5.6" maskUnits="userSpaceOnUse"><g id="mask32_416_4375"><path class="st10" d="M16.3,53.3h0c0,0,.1.2.2.2h0c0,0,2.4-2.4,2.4-2.4h0c0,0,0-.2,0-.2h0s0,0,0,0c0,0,0,0,0-.1h0c0,0-2.6,2.6-2.6,2.6Z"></path></g></mask><mask id="mask-33" x="21.2" y="55.5" width="2.6" height="2.6" maskUnits="userSpaceOnUse"><g id="mask33_416_4375"><path class="st10" d="M22,57.5h0c0,0,.1.1.2.1h0s.7-1.3.7-1.3c0,0,0,0,0,0h0s0,0,0,0h0c0,0,0-.1-.1-.2h0s-.8,1.4-.8,1.4Z"></path></g></mask><mask id="mask-34" x="24.8" y="57.9" width="1.5" height="1.5" maskUnits="userSpaceOnUse"><g id="mask34_416_4375"><path class="st10" d="M25.3,59h0s0,0,0,0h.1s.3-.7.3-.7h0s0-.1,0-.1h-.2c0-.1-.3.8-.3.8Z"></path></g></mask><mask id="mask-35" x="17.9" y="52.6" width="4" height="4" maskUnits="userSpaceOnUse"><g id="mask35_416_4375"><path class="st10" d="M19,55.6h.1c0,0,.1.1.2.2h0s1.4-1.9,1.4-1.9h0c0-.1,0-.2,0-.2,0,0,0,0,0-.1h0c0,0-1.6,2-1.6,2h0Z"></path></g></mask><mask id="mask-36" x="12.3" y="45.6" width="7.2" height="7.2" maskUnits="userSpaceOnUse"><g id="mask36_416_4375"><path class="st10" d="M13.9,50.6h0c0,.1.2.2.2.3h0s3.6-2.9,3.6-2.9c0,0,0,0,0,0h0c0-.1,0-.2,0-.2h0s0-.1,0-.2h0c0,0-3.9,3-3.9,3Z"></path></g></mask><mask id="mask-37" x="29" y="47" width="3.5" height="13.2" maskUnits="userSpaceOnUse"><g id="mask37_416_4375"><path class="st10" d="M29,59.8h0c0,0,0,0,0,0,.4.1.8.3,1.3.4h0l2.1-13h0c-.2,0-.4-.1-.6-.2h0s-2.8,12.8-2.8,12.8h0Z"></path></g></mask><mask id="mask-38" x="32.5" y="47.4" width="1.7" height="13.4" maskUnits="userSpaceOnUse"><g id="mask38_416_4375"><path class="st10" d="M32.5,60.6h0c.4,0,.8,0,1.2.1h0l.4-13.3h0c-.2,0-.4,0-.6,0h0l-1,13.2Z"></path></g></mask><mask id="mask-39" x="35.3" y="47.4" width="2.1" height="13.3" maskUnits="userSpaceOnUse"><g id="mask39_416_4375"><path class="st10" d="M35.9,47.4c-.2,0-.4,0-.6,0h0l.8,13.2h0c0,0,0,0,0,0,.4,0,.8,0,1.2,0h0l-1.4-13.2h0Z"></path></g></mask><mask id="mask-40" x="37" y="46.9" width="3.8" height="13.3" maskUnits="userSpaceOnUse"><g id="mask40_416_4375"><path class="st10" d="M37.6,47c-.2,0-.4.1-.5.2h0l2.6,13.1h0c.4,0,.8-.2,1.1-.3h0l-3.2-13h0s0,0,0,0Z"></path></g></mask><mask id="mask-41" x="38.7" y="46.2" width="5.6" height="13.1" maskUnits="userSpaceOnUse"><g id="mask41_416_4375"><path class="st10" d="M39.2,46.3c-.2.1-.3.2-.5.2h0s4.4,12.8,4.4,12.8h0c.3-.1.7-.3,1-.4h0s-5-12.6-5-12.6h0c0,0,0,0,0,0h0Z"></path></g></mask><mask id="mask-42" x="40.2" y="45.3" width="7.3" height="12.7" maskUnits="userSpaceOnUse"><g id="mask42_416_4375"><path class="st10" d="M40.6,45.3c-.1.1-.2.2-.4.3h0s6.2,12.3,6.2,12.3h0c.3-.2.6-.3.9-.5h0s-6.8-12.1-6.8-12.1h0Z"></path></g></mask><mask id="mask-43" x="41.4" y="44.1" width="8.9" height="12" maskUnits="userSpaceOnUse"><g id="mask43_416_4375"><path class="st10" d="M41.8,44.1c0,.1-.2.2-.3.4h0s8,11.5,8,11.5h0s0,0,0,0c.2-.2.5-.4.8-.6h0s-8.5-11.3-8.5-11.3h0c0,0,0,0,0,0Z"></path></g></mask><mask id="mask-44" x="42.5" y="42.7" width="10.6" height="11.1" maskUnits="userSpaceOnUse"><g id="mask44_416_4375"><path class="st10" d="M42.7,42.8c0,.1-.2.2-.2.4h0s9.8,10.6,9.8,10.6h0s0,0,0,0c.2-.2.5-.4.7-.7h0s-10.2-10.4-10.2-10.4h0s0,0,0,0h0Z"></path></g></mask><mask id="mask-45" x="43.2" y="41.3" width="12.1" height="10" maskUnits="userSpaceOnUse"><g id="mask45_416_4375"><path class="st10" d="M43.4,41.3c0,.1-.1.2-.2.4h0s11.5,9.5,11.5,9.5h0s0,0,0,0c.2-.2.4-.5.6-.7h0s-11.9-9.2-11.9-9.2h0c0,0,0,0,0,0Z"></path></g></mask><mask id="mask-46" x="44" y="40.1" width="13.3" height="8.2" maskUnits="userSpaceOnUse"><g id="mask46_416_4375"><path class="st10" d="M44.4,40.2h-.1c0,.1-.1.2-.2.2h0s12.8,8,12.8,8h0c.1-.3.3-.5.4-.8h0c0,0-12.9-7.5-12.9-7.5,0,0,0,0,0,0"></path></g></mask><mask id="mask-47" x="45.4" y="39" width="13.5" height="6.2" maskUnits="userSpaceOnUse"><g id="mask47_416_4375"><path class="st10" d="M45.8,39.1c-.1,0-.2.2-.4.2h0l13.1,5.8h0s0,0,0,0c.1-.3.2-.5.3-.7h0s-13-5.4-13-5.4c0,0,0,0,0,0"></path></g></mask><mask id="mask-48" x="46.9" y="37.7" width="13.1" height="4.1" maskUnits="userSpaceOnUse"><g id="mask48_416_4375"><path class="st10" d="M47.2,37.8h0c0,.2-.1.2-.2.3,0,0,0,0,0,0l12.8,3.7h0c0-.3.1-.5.2-.8h0s-12.7-3.3-12.7-3.3c0,0,0,0,0,0"></path></g></mask><mask id="mask-49" x="48.3" y="36.1" width="12.3" height="2.2" maskUnits="userSpaceOnUse"><g id="mask49_416_4375"><path class="st10" d="M48.6,36.2h0c0,.2-.1.3-.2.3,0,0,0,0,0,0l12.2,1.8h0c0-.3,0-.5,0-.7h0c0,0-12-1.5-12-1.5,0,0,0,0,0,0"></path></g></mask><mask id="mask-50" x="49.6" y="34" width="11.2" height=".7" maskUnits="userSpaceOnUse"><g id="mask50_416_4375"><path class="st10" d="M49.9,34.2h0c0,0,0,.2,0,.2,0,0,0,.1,0,.2h0c0,0,11.1.2,11.1.2h0v-.5h0v-.3l-10.9.2h0Z"></path></g></mask><mask id="mask-51" x="50.8" y="30.5" width="9.8" height="2" maskUnits="userSpaceOnUse"><g id="mask51_416_4375"><path class="st10" d="M51,31.9s0,0,0,0c0,.1,0,.2-.1.3h0c0,.1,9.8-1.2,9.8-1.2h0c0-.2,0-.4,0-.6h0c0,0-9.5,1.4-9.5,1.4Z"></path></g></mask><mask id="mask-52" x="51.6" y="27" width="8.3" height="2.9" maskUnits="userSpaceOnUse"><g id="mask52_416_4375"><path class="st10" d="M51.7,29.4s0,0,0,0c0,0,0,.2,0,.3h0c0,.1,8.2-2.1,8.2-2.1h0,0c0-.2,0-.4-.1-.6h0s-8,2.3-8,2.3Z"></path></g></mask><mask id="mask-53" x="52.1" y="23.7" width="6.7" height="3.4" maskUnits="userSpaceOnUse"><g id="mask53_416_4375"><path class="st10" d="M52.1,26.6h0c0,.2,0,.3,0,.4h0c0,.1,6.7-2.7,6.7-2.7h0c0-.2-.1-.3-.2-.5h0s-6.4,2.8-6.4,2.8h0Z"></path></g></mask><mask id="mask-54" x="52" y="20.6" width="5.1" height="3.5" maskUnits="userSpaceOnUse"><g id="mask54_416_4375"><path class="st10" d="M52,23.6s0,0,0,0c0,0,0,.2,0,.2h0c0,.1,5-2.8,5-2.8h0s0,0,0,0c0-.1-.2-.2-.2-.4h0c0,0-4.8,2.9-4.8,2.9h0Z"></path></g></mask><mask id="mask-55" x="51.4" y="17.7" width="3.7" height="3.2" maskUnits="userSpaceOnUse"><g id="mask55_416_4375"><path class="st10" d="M51.4,20.5s0,0,0,0c0,0,0,.1,0,.2h0c0,.1,3.6-2.7,3.6-2.7h0c0-.1-.2-.2-.2-.3h0s-3.4,2.8-3.4,2.8h0Z"></path></g></mask><mask id="mask-56" x="50.1" y="15.2" width="2.5" height="2.8" maskUnits="userSpaceOnUse"><g id="mask56_416_4375"><path class="st10" d="M50.1,17.5s0,0,0,0c0,0,0,.1,0,.2h0c0,.1,2.3-2.3,2.3-2.3h0s0,0,0,0c0,0-.1-.1-.2-.2h-.1c0,0-2.2,2.3-2.2,2.3h0Z"></path></g></mask><mask id="mask-57" x="48.3" y="13" width="1.6" height="2.1" maskUnits="userSpaceOnUse"><g id="mask57_416_4375"><path class="st10" d="M48.3,14.8s0,0,0,0c0,0,0,0,0,.1h0c0,0,1.4-1.8,1.4-1.8h-.1c0,0-.1-.2-.2-.2h0s-1.3,1.8-1.3,1.8h0Z"></path></g></mask><mask id="mask-58" x="45.9" y="11.1" width=".9" height="1.4" maskUnits="userSpaceOnUse"><g id="mask58_416_4375"><path class="st10" d="M45.9,12.3s0,0,0,0h0c0,0,0,0,0,.1,0,0,0,0,0,0l.7-1.3h0c0,0-.1,0-.2-.1h0s-.6,1.2-.6,1.2h0Z"></path></g></mask><mask id="mask-59" x="43.1" y="9.7" width=".5" height=".8" maskUnits="userSpaceOnUse"><g id="mask59_416_4375"><path class="st10" d="M43.1,10.4h0s0,0,0,0h0c0,0,.2-.6.2-.6h-.2c0,0-.2.6-.2.6h0Z"></path></g></mask><mask id="mask-60" x="28.3" y="26.7" width="1" height=".8" maskUnits="userSpaceOnUse"><g id="mask60_416_4375"><path class="st10" d="M29.3,26.7h-.2c0,0-.1,0-.2.1-.2,0-.4.1-.6.2h0s.4.5.4.5h0c.1-.3.3-.5.4-.7h.1c0-.1,0-.1,0-.1Z"></path></g></mask><mask id="mask-61" x="27" y="27.2" width="1.5" height="1.4" maskUnits="userSpaceOnUse"><g id="mask61_416_4375"><path class="st10" d="M27.8,27.2c0,0-.1,0-.2,0-.2,0-.4.2-.6.3h0s1,1,1,1h0c.1-.3.3-.5.4-.7h0s-.5-.6-.5-.6h0c0,0,0,0,0,0h0Z"></path></g></mask><mask id="mask-62" x="25.6" y="27.8" width="2.2" height="1.8" maskUnits="userSpaceOnUse"><g id="mask62_416_4375"><path class="st10" d="M26.5,27.8c0,0-.1,0-.2.1-.2.1-.4.2-.6.3h0s1.8,1.3,1.8,1.3h0c.1-.3.2-.5.3-.7h0s-1.2-1-1.2-1h0c0,0,0,0,0,0h0Z"></path></g></mask><mask id="mask-63" x="24.3" y="28.6" width="3" height="2" maskUnits="userSpaceOnUse"><g id="mask63_416_4375"><path class="st10" d="M25.1,28.7c0,0-.1,0-.2.1-.2.1-.4.3-.6.4h0c0,0,2.7,1.4,2.7,1.4h0c0-.2.2-.5.3-.6h0c0,0-2-1.3-2-1.3h-.1c0,0,0,0,0,0h0Z"></path></g></mask><mask id="mask-64" x="22.9" y="29.6" width="3.9" height="2" maskUnits="userSpaceOnUse"><g id="mask64_416_4375"><path class="st10" d="M23.7,29.7c0,0-.1.1-.2.2-.2.2-.4.3-.6.5h0c0,0,3.6,1.3,3.6,1.3h0c0-.2.1-.4.2-.6,0,0,0,0,0,0,0,0,0,0,0,0h0s-2.9-1.3-2.9-1.3h0s0,0,0,0h0s0,0,0,0Z"></path></g></mask><mask id="mask-65" x="21.5" y="30.9" width="4.8" height="1.9" maskUnits="userSpaceOnUse"><g id="mask65_416_4375"><path class="st10" d="M22.2,31c0,0-.1,0-.1.1-.2.2-.4.4-.6.6h0c0,0,4.6,1,4.6,1h0c0-.2.1-.4.2-.6h0c0,0-3.9-1.2-3.9-1.2h-.1s0,0,0,0h0Z"></path></g></mask><mask id="mask-66" x="20.2" y="32.4" width="5.8" height="1.4" maskUnits="userSpaceOnUse"><g id="mask66_416_4375"><path class="st10" d="M20.9,32.5c0,0,0,.1-.1.2-.2.2-.4.5-.5.7h0c0,0,5.5.5,5.5.5h0c0-.3.1-.5.2-.7h0c0,0-4.9-.8-4.9-.8h-.1s0,0,0,0h0Z"></path></g></mask><mask id="mask-67" x="20.9" y="32.4" width="0" height="0" maskUnits="userSpaceOnUse"><g id="mask67_416_4375"><path class="st10" d="M20.9,32.4h0c0,0,0,0,0,0Z"></path></g></mask><mask id="mask-68" x="19" y="34.3" width="6.7" height="1.2" maskUnits="userSpaceOnUse"><g id="mask68_416_4375"><path class="st10" d="M19.5,34.6h0c-.1.3-.3.5-.4.8h0c0,0,6.5-.3,6.5-.3h0c0-.3,0-.5.1-.7h0c0,0-5.9-.1-5.9-.1h-.1l-.2.3h0Z"></path></g></mask><mask id="mask-69" x="18" y="35.6" width="7.4" height="2.2" maskUnits="userSpaceOnUse"><g id="mask69_416_4375"><path class="st10" d="M18.7,36.5h-.1s0,.1,0,.1c0,0,0,0,0,0h0s0,0,0,.1c-.1.3-.2.6-.4.9h0c0,0,7.3-1.3,7.3-1.3h0v-.8c0,0-6.7.9-6.7.9h0Z"></path></g></mask><mask id="mask-70" x="17.4" y="36.9" width="7.9" height="3.5" maskUnits="userSpaceOnUse"><g id="mask70_416_4375"><path class="st10" d="M17.8,39h0s0,0,0,0h0c0,.1,0,.2,0,.2,0,0,0,0,0,0,0,.4-.2.7-.2,1h0c0,0,7.9-2.6,7.9-2.6h0v-.7h0c0,0-7.5,2-7.5,2h0Z"></path></g></mask><mask id="mask-71" x="17.2" y="38.3" width="8.2" height="4.9" maskUnits="userSpaceOnUse"><g id="mask71_416_4375"><path class="st10" d="M17.3,41.7h0s0,0,0,0h0v.2h0c0,.5,0,.9,0,1.2h0c0,0,8.2-4,8.2-4h0c0-.3,0-.5,0-.7h0c0,0-8,3.3-8,3.3h0Z"></path></g></mask><mask id="mask-72" x="17.2" y="39.8" width="8.4" height="6.5" maskUnits="userSpaceOnUse"><g id="mask72_416_4375"><path class="st10" d="M17.3,44.7h0s0,0,0,0v.2h0s0,0,0,.1c0,.4,0,.8.1,1.2h0c0,0,8.2-5.5,8.2-5.5h0c0-.3-.1-.5-.2-.7h0c0,0-8.2,4.8-8.2,4.8h0Z"></path></g></mask><mask id="mask-73" x="17.8" y="41.3" width="8.4" height="8" maskUnits="userSpaceOnUse"><g id="mask73_416_4375"><path class="st10" d="M17.9,47.8h0s0,0,0,0h0c0,.1,0,.2,0,.2.1.4.2.8.4,1.2h0c0,0,7.9-7.1,7.9-7.1h0s0,0,0,0c-.1-.2-.2-.4-.3-.7h0c0,0-8,6.4-8,6.4h0Z"></path></g></mask><mask id="mask-74" x="18.9" y="42.8" width="8.1" height="9.4" maskUnits="userSpaceOnUse"><g id="mask74_416_4375"><path class="st10" d="M19,50.8h0c0,0,0,0,0,0h0c0,0,0,.2,0,.2.2.4.4.8.6,1.1h0c0,0,7.4-8.6,7.4-8.6h0s0,0,0,0c-.1-.2-.2-.4-.4-.6h0c0,0-7.6,8-7.6,8h0Z"></path></g></mask><mask id="mask-75" x="20.6" y="44.1" width="7.4" height="10.8" maskUnits="userSpaceOnUse"><g id="mask75_416_4375"><path class="st10" d="M20.7,53.6h0c0,0,0,.2.1.2.3.3.5.7.8,1h0c0,0,6.5-10.1,6.5-10.1h0s0,0,0,0c-.2-.2-.3-.3-.5-.5h0s-6.8,9.5-6.8,9.5h0Z"></path></g></mask><mask id="mask-76" x="23" y="45.3" width="6.4" height="11.9" maskUnits="userSpaceOnUse"><g id="mask76_416_4375"><path class="st10" d="M23,56.2h0c0,0,0,.1,0,.1h0s0,0,0,0c.3.3.7.6,1,.8h0s5.3-11.3,5.3-11.3h0s0,0,0,0c-.2-.1-.4-.3-.5-.4h0s-5.7,10.8-5.7,10.8h0Z"></path></g></mask><mask id="mask-77" x="25.8" y="46.3" width="5.1" height="12.7" maskUnits="userSpaceOnUse"><g id="mask77_416_4375"><path class="st10" d="M25.8,58.2h0c0,.1,0,.1,0,.1h0c.4.2.8.4,1.2.6h0s3.8-12.4,3.8-12.4h0c-.2-.1-.4-.2-.6-.3h0s-4.4,11.9-4.4,11.9h0Z"></path></g></mask></defs><path class="st10" d="M86.2,42.7h4.6c2.4,0,3.8,1.1,3.8,3.1s-.8,2.4-1.6,2.6h0c1.3.4,2,1.3,2,2.8,0,2.2-1.6,3.2-3.9,3.2h-5v-11.7h0ZM90.7,47.8c1,0,1.8-.6,1.8-1.8,0-1.2-.8-1.6-2-1.6h-2.1v3.4h2.3ZM90.8,52.7c1.2,0,2.2-.4,2.2-1.8s-1-1.7-2.2-1.7h-2.4v3.5h2.5,0Z"></path><path class="st10" d="M106.3,54.4h-2.5l-2.7-4.5h-1.8v4.5h-2.2v-11.7h4.5c2.6,0,4.1,1.4,4.1,3.6s-1.1,2.9-2.6,3.2l3.1,4.8ZM103.6,46.4c0-1.2-.8-1.8-2.1-1.8h-2.3v3.7h2.3c1.2,0,2.1-.8,2.1-1.9Z"></path><path class="st10" d="M115.3,52.7h-5.6l-.8,1.8h-2.3l5.3-11.7h1.1l5.3,11.7h-2.3l-.8-1.8ZM114.6,51.1l-2-4.8h-.1l-2.1,4.8h4.2Z"></path><path class="st10" d="M127.6,50.6v-7.9h2.1v11.7h-1.1l-6.7-7.7h-.1v7.7h-2.1v-11.7h1.1l6.6,7.9h.1Z"></path><path class="st10" d="M132.4,42.7h4.2c3.6,0,6.1,2.4,6.1,5.9s-2.6,5.8-6.1,5.8h-4.2v-11.7ZM136.6,52.4c2.2,0,3.8-1.5,3.8-3.8s-1.5-3.8-3.8-3.8h-2v7.6h2Z"></path><path class="st10" d="M144.1,53.8v-2h.2c1,.5,2.5,1,3.8,1s2.4-.4,2.4-1.5-1.4-1.4-3.1-2c-1.7-.6-3.1-1.4-3.1-3.3s2-3.5,4.6-3.5,2.4.2,3.3.7v2h-.2c-.8-.5-2.3-.8-3.3-.8-1.2,0-2.1.4-2.1,1.5s1.2,1.4,2.4,1.8c2.1.5,3.9,1.3,3.9,3.5s-1.9,3.6-4.7,3.6-2.9-.4-4-.9"></path><path class="st10" d="M69.1,13.7h8.1c5.9,0,8.4,3.3,8.4,7.3s-2.4,7.2-8.4,7.2h-3.9v9.2h-4.1V13.7h0ZM77.1,24.3c3,0,4.2-1.4,4.2-3.3s-1.2-3.3-4.2-3.3h-3.9v6.6h3.9Z"></path><path class="st10" d="M101.6,37.5h4.9l-6.1-8.9c3.6-1.1,5.2-3.7,5.2-6.9,0-4.6-3.1-7.9-8.9-7.9h-7.1v23.7h4.1v-8.4h2.3l5.6,8.4h0ZM93.7,17.7h3.3c2.5,0,4.3,1.4,4.3,3.9s-1.7,4-4.3,4h-3.4v-7.9h0Z"></path><path class="st10" d="M114.7,13.7h-4.1v23.7h4.1V13.7Z"></path><path class="st10" d="M148.7,25.6c0-7.1,5.3-12.3,12.1-12.3s12.1,5.3,12.1,12.3-5.5,12.3-12.1,12.3-12.1-5-12.1-12.3ZM168.8,25.7c0-4.8-3.5-8.4-8-8.4s-7.9,3.5-7.9,8.4,3.6,8.3,7.9,8.3,8-3.3,8-8.3Z"></path><path class="st10" d="M142.5,13.7l-10.1,10.4-10.1-10.4h-1.5v23.7h4.1v-15.3l7.6,7.8,7.5-7.8v15.3h4.1V13.7h-1.5Z"></path><g class="st0"><path class="st10" d="M44.2,38.8l-1,1.2,1.2,1,1-1.2-1.2-1Z"></path></g><g class="st7"><path class="st10" d="M44.8,36.7l-1.6,2.1,2.2,1.7,1.6-2.1-2.2-1.7Z"></path></g><g class="st1"><path class="st10" d="M45.4,34.7l-2.2,2.9,3.1,2.4,2.2-2.9-3.1-2.4Z"></path></g><g class="st2"><path class="st10" d="M45.8,32.7l-2.7,3.4,4,3.1,2.7-3.4-4-3.1Z"></path></g><g class="st3"><path class="st10" d="M46.1,30.4l-3.1,4,4.7,3.7,3.1-4-4.7-3.7Z"></path></g><g class="st4"><path class="st10" d="M46.2,27.5l-4.1,5.2,6,4.7,4.1-5.2-6-4.7Z"></path></g><g class="st6"><path class="st10" d="M46.2,24.3l-5.2,6.6,7.4,5.7,5.2-6.6-7.4-5.7Z"></path></g><g class="st5"><path class="st10" d="M46,21.1l-6.3,8.1,8.7,6.8,6.3-8.1-8.7-6.8Z"></path></g><g class="st9"><path class="st10" d="M45.7,17.9l-7.4,9.5,9.9,7.7,7.4-9.5-9.9-7.7Z"></path></g><g class="st8"><path class="st10" d="M45.2,14.8l-8.4,10.8,10.9,8.5,8.4-10.8-10.9-8.5Z"></path></g><g class="st44"><path class="st10" d="M44.3,12.1l-9.1,11.8,11.6,9,9.1-11.8-11.6-9Z"></path></g><g class="st47"><path class="st10" d="M43.2,9.8l-9.6,12.3,11.8,9.2,9.6-12.3-11.8-9.2Z"></path></g><g class="st51"><path class="st10" d="M41.8,8.2l-9.6,12.4,11.5,8.9,9.6-12.4-11.5-8.9Z"></path></g><g class="st49"><path class="st10" d="M40.1,7.2l-9.3,11.9,10.7,8.3,9.3-11.9-10.7-8.3Z"></path></g><g class="st45"><path class="st10" d="M38.1,6.9l-8.5,10.9,9.5,7.4,8.5-10.9-9.5-7.4Z"></path></g><g class="st53"><path class="st10" d="M35.8,7.3l-7.4,9.5,7.8,6.1,7.4-9.5-7.8-6.1Z"></path></g><g class="st48"><path class="st10" d="M32.9,7.3l-7.4,9.5,7.9,6.1,7.4-9.5-7.9-6.1Z"></path></g><g class="st52"><path class="st10" d="M30.1,6.7l-8.6,11.1,9.6,7.5,8.6-11.1-9.6-7.5Z"></path></g><g class="st46"><path class="st10" d="M27.5,6.6l-9.6,12.4,11.1,8.6,9.6-12.4-11.1-8.6Z"></path></g><g class="st50"><path class="st10" d="M25.1,6.9l-10.3,13.3,12.4,9.6,10.3-13.3-12.4-9.6Z"></path></g><g class="st56"><path class="st10" d="M22.9,7.7l-10.7,13.8,13.2,10.3,10.7-13.8-13.2-10.3Z"></path></g><g class="st55"><path class="st10" d="M20.8,9.2l-10.5,13.5,13.4,10.4,10.5-13.5-13.4-10.4Z"></path></g><g class="st54"><path class="st10" d="M18.8,11.2l-9.9,12.8,13.1,10.2,9.9-12.8-13.1-10.2Z"></path></g><g class="st60"><path class="st10" d="M17.1,13.8l-9.2,11.8,12.5,9.7,9.2-11.8-12.5-9.7Z"></path></g><g class="st59"><path class="st10" d="M15.6,16.9l-8.2,10.6,11.6,9,8.2-10.6-11.6-9Z"></path></g><g class="st58"><path class="st10" d="M14.3,20.4l-7.1,9.1,10.4,8.1,7.1-9.1-10.4-8.1Z"></path></g><g class="st77"><path class="st10" d="M13.3,24.2l-5.9,7.6,9,7,5.9-7.6-9-7Z"></path></g><g class="st78"><path class="st10" d="M12.7,28.3l-4.7,6,7.5,5.9,4.7-6-7.5-5.9Z"></path></g><g class="st75"><path class="st10" d="M12.4,31.3l-4.7,6.1,7.3,5.6,4.7-6.1-7.3-5.6Z"></path></g><g class="st76"><path class="st10" d="M12.5,34.5l-4.7,6,6.8,5.3,4.7-6-6.8-5.3Z"></path></g><g class="st32"><path class="st10" d="M13,38.1l-4.3,5.5,6,4.7,4.3-5.5-6-4.7Z"></path></g><g class="st30"><path class="st10" d="M14,41.9l-3.8,4.9,5.1,4,3.8-4.9-5.1-4Z"></path></g><g class="st43"><path class="st10" d="M17.3,49.3l-2.4,3.1,3.1,2.4,2.4-3.1-3.1-2.4Z"></path></g><g class="st34"><path class="st10" d="M22.4,55.5l-1.2,1.5,1.4,1.1,1.2-1.5-1.4-1.1Z"></path></g><g class="st33"><path class="st10" d="M25.5,57.9l-.7.9.8.6.7-.9-.8-.6Z"></path></g><g class="st31"><path class="st10" d="M19.7,52.6l-1.8,2.3,2.2,1.7,1.8-2.3-2.2-1.7Z"></path></g><g class="st57"><path class="st10" d="M15.4,45.6l-3.1,4,4.1,3.2,3.1-4-4.1-3.2Z"></path></g><g class="st63"><path class="st10" d="M32.5,47h-3.5v13.2h3.5v-13.2Z"></path></g><g class="st62"><path class="st10" d="M34.2,47.4h-1.7v13.4h1.7v-13.4Z"></path></g><g class="st61"><path class="st10" d="M37.4,47.4h-2.1v13.3h2.1v-13.3Z"></path></g><g class="st38"><path class="st10" d="M40.9,46.9h-3.8v13.3h3.8v-13.3Z"></path></g><g class="st28"><path class="st10" d="M44.2,46.2h-5.6v13.1h5.6v-13.1Z"></path></g><g class="st41"><path class="st10" d="M47.4,45.3h-7.3v12.6h7.3v-12.6Z"></path></g><g class="st37"><path class="st10" d="M50.4,44.1h-8.9v12h8.9v-12Z"></path></g><g class="st36"><path class="st10" d="M53,42.7h-10.6v11.1h10.6v-11.1Z"></path></g><g class="st40"><path class="st10" d="M55.4,41.3h-12.1v10h12.1v-10Z"></path></g><g class="st39"><path class="st10" d="M57.3,40.1h-13.3v8.2h13.3v-8.2Z"></path></g><g class="st72"><path class="st10" d="M58.9,39h-13.5v6.2h13.5v-6.2Z"></path></g><g class="st71"><path class="st10" d="M60,37.7h-13.1v4.1h13.1v-4.1Z"></path></g><g class="st64"><path class="st10" d="M60.6,36.1h-12.3v2.2h12.3v-2.2Z"></path></g><g class="st11"><path class="st10" d="M60.8,34h-11.2v.7h11.2v-.7Z"></path></g><g class="st13"><path class="st10" d="M60.6,30.5h-9.8v1.9h9.8v-1.9Z"></path></g><g class="st15"><path class="st10" d="M59.9,27h-8.3v2.9h8.3v-2.9Z"></path></g><g class="st14"><path class="st10" d="M58.7,23.7h-6.7v3.4h6.7v-3.4Z"></path></g><g class="st12"><path class="st10" d="M57.1,20.6h-5.1v3.5h5.1v-3.5Z"></path></g><g class="st16"><path class="st10" d="M55.1,17.7h-3.7v3.2h3.7v-3.2Z"></path></g><g class="st23"><path class="st10" d="M52.7,15.2h-2.5v2.8h2.5v-2.8Z"></path></g><g class="st35"><path class="st10" d="M49.9,13h-1.6v2.1h1.6v-2.1Z"></path></g><g class="st42"><path class="st10" d="M46.9,11.1h-.9v1.4h.9v-1.4Z"></path></g><g class="st29"><path class="st10" d="M43.6,9.7h-.5v.8h.5v-.8Z"></path></g><g class="st17"><path class="st10" d="M29.3,26.7h-1v.8h1v-.8Z"></path></g><g class="st20"><path class="st10" d="M28.5,27.2h-1.5v1.4h1.5v-1.4Z"></path></g><g class="st19"><path class="st10" d="M27.8,27.8h-2.2v1.8h2.2v-1.8Z"></path></g><g class="st70"><path class="st10" d="M27.3,28.6h-3v2h3v-2Z"></path></g><g class="st18"><path class="st10" d="M26.8,29.6h-3.9v2h3.9v-2Z"></path></g><g class="st22"><path class="st10" d="M26.3,30.9h-4.8v1.9h4.8v-1.9Z"></path></g><g class="st21"><path class="st10" d="M26,32.4h-5.8v1.4h5.8v-1.4Z"></path></g><g class="st27"><path class="st10" d="M20.9,32.4h0c0,0,0,0,0,0h0Z"></path></g><g class="st26"><path class="st10" d="M25.6,34.3h-6.7v1.2h6.7v-1.2Z"></path></g><g class="st25"><path class="st10" d="M25.4,35.6h-7.4v2.2h7.4v-2.2Z"></path></g><g class="st68"><path class="st10" d="M25.3,36.9h-7.9v3.5h7.9v-3.5Z"></path></g><g class="st65"><path class="st10" d="M25.4,38.3h-8.2v4.9h8.2v-4.9Z"></path></g><g class="st66"><path class="st10" d="M25.7,39.8h-8.4v6.4h8.4v-6.4Z"></path></g><g class="st69"><path class="st10" d="M26.2,41.3h-8.4v8h8.4v-8Z"></path></g><g class="st73"><path class="st10" d="M27,42.8h-8.1v9.4h8.1v-9.4Z"></path></g><g class="st67"><path class="st10" d="M28.1,44.1h-7.4v10.8h7.4v-10.8Z"></path></g><g class="st74"><path class="st10" d="M29.4,45.3h-6.4v11.9h6.4v-11.9Z"></path></g><g class="st24"><path class="st10" d="M30.9,46.3h-5.1v12.7h5.1v-12.7Z"></path></g><path class="st10" d="M156.2,45.5h.5v-2.4h.8v-.4h-2.1v.4h.8v2.4Z"></path><path class="st10" d="M159.4,43.9l-1.2-1.3h-.1v2.8h.4v-1.9l1,1,1-1v1.9h.4v-2.8h-.1l-1.3,1.3h0Z"></path></svg>