<?xml version="1.0" standalone="no"?>
<!DOCTYPE svg PUBLIC "-//W3C//DTD SVG 20010904//EN"
 "http://www.w3.org/TR/2001/REC-SVG-20010904/DTD/svg10.dtd">
<svg version="1.0" xmlns="http://www.w3.org/2000/svg"
 width="512.000000pt" height="512.000000pt" viewBox="0 0 512.000000 512.000000"
 preserveAspectRatio="xMidYMid meet">
<metadata>
Created by potrace 1.14, written by Peter Selinger 2001-2017
</metadata>
<g transform="translate(0.000000,512.000000) scale(0.100000,-0.100000)"
fill="#000000" stroke="none">
<path d="M565 5113 c-252 -57 -451 -231 -532 -466 l-28 -82 0 -2010 0 -2010
32 -83 c78 -202 223 -347 427 -426 l81 -31 2015 0 2015 0 83 32 c206 80 356
232 429 438 l28 80 0 2005 0 2005 -28 82 c-69 201 -232 365 -434 440 l-78 28
-1995 1 c-1097 1 -2004 0 -2015 -3z m2038 -736 c57 -65 102 -175 116 -282 l6
-50 55 -6 c31 -3 73 -14 95 -25 92 -43 154 -148 142 -238 -5 -37 -4 -42 14
-43 11 -1 17 2 14 7 -14 22 20 103 62 150 71 79 182 109 278 75 21 -8 40 -13
40 -12 17 35 74 112 107 143 101 97 176 120 217 68 12 -15 21 -34 21 -43 0 -9
-25 -88 -56 -176 -58 -167 -121 -396 -150 -550 -15 -79 -22 -94 -52 -122 l-34
-32 22 -31 c21 -29 22 -38 15 -133 l-7 -102 74 -3 c133 -5 214 -65 226 -168
10 -89 -44 -170 -128 -195 l-40 -12 0 -899 0 -898 -1105 0 -1105 0 0 898 0
898 -34 12 c-102 37 -145 181 -82 274 36 53 91 80 156 75 86 -7 92 1 84 116
-6 87 -5 99 15 132 l22 37 -34 32 c-32 29 -36 41 -66 184 -38 181 -85 347
-143 504 -49 134 -54 191 -19 219 13 11 34 19 48 19 59 0 174 -90 238 -185 39
-59 41 -60 99 -44 135 37 316 -82 316 -207 0 -32 4 -44 15 -44 12 0 14 11 9
58 -14 135 88 247 244 268 50 6 52 8 52 38 0 104 93 301 154 326 33 14 68 2
99 -33z"/>
<path d="M2511 4312 c-55 -78 -91 -195 -91 -299 l0 -71 -31 15 c-69 34 -182 3
-233 -64 -77 -103 4 -253 137 -253 26 0 47 2 47 5 0 3 -9 14 -20 25 -40 40
-17 116 36 121 46 5 63 -2 83 -35 43 -68 36 -179 -13 -225 -76 -71 -244 -32
-339 79 l-36 42 -7 -28 c-20 -82 -93 -165 -163 -184 -90 -25 -152 -6 -201 62
-78 107 8 262 104 187 19 -15 26 -30 26 -54 0 -19 -4 -37 -10 -40 -21 -13 -9
-25 18 -19 74 18 132 90 132 165 -1 83 -86 159 -179 159 -54 0 -122 -29 -144
-60 -15 -21 -15 -21 -27 17 -20 60 -55 125 -93 168 -36 42 -114 102 -122 94
-2 -3 16 -62 40 -132 54 -154 115 -374 147 -527 l23 -113 53 -39 c36 -27 50
-43 44 -51 -4 -7 -22 -30 -38 -52 -26 -34 -30 -47 -26 -82 2 -24 9 -43 16 -43
6 0 58 9 116 20 285 53 417 64 775 64 358 0 501 -12 778 -65 56 -10 108 -19
114 -19 8 0 13 15 13 41 0 31 -8 51 -35 86 -19 25 -35 49 -35 54 0 4 23 22 50
40 28 18 53 42 55 53 3 12 16 75 29 141 29 142 102 398 151 527 19 51 33 94
31 96 -8 7 -50 -21 -98 -66 -53 -49 -99 -123 -118 -189 l-13 -41 -24 29 c-49
58 -168 71 -236 25 -104 -70 -103 -202 2 -273 36 -25 95 -33 73 -11 -19 19
-14 76 8 98 12 12 33 20 53 20 48 0 79 -36 85 -99 4 -42 0 -58 -23 -96 -35
-60 -76 -85 -141 -85 -93 0 -188 67 -215 153 -6 17 -13 38 -15 46 -3 10 -14 3
-35 -22 -90 -109 -256 -156 -335 -94 -63 49 -72 179 -16 247 26 31 82 37 110
10 29 -27 30 -83 2 -107 -32 -28 -23 -36 35 -31 93 8 155 72 155 161 0 64 -27
109 -88 144 -55 33 -134 37 -175 10 -15 -9 -28 -17 -29 -17 -2 0 -2 28 0 63 6
102 -38 248 -97 326 l-18 23 -22 -30z m59 -246 c17 -53 8 -241 -15 -324 -11
-40 -21 -59 -25 -50 -19 34 -40 166 -42 255 -1 81 3 106 21 147 20 46 22 48
35 30 7 -10 19 -37 26 -58z m30 -641 l55 -55 -60 -55 c-33 -30 -62 -54 -65
-55 -3 0 -30 25 -60 55 l-54 55 54 55 c30 30 59 55 65 55 6 0 35 -25 65 -55z
m411 -25 c22 0 49 -42 49 -75 0 -46 -29 -75 -75 -75 -42 0 -85 37 -85 72 0 45
53 94 88 82 8 -2 18 -4 23 -4z m-870 -19 c17 -13 23 -29 23 -56 0 -45 -31 -75
-78 -75 -52 0 -76 24 -76 75 0 34 5 47 22 59 30 22 81 20 109 -3z"/>
<path d="M2290 3074 c-19 -2 -96 -9 -170 -15 -126 -10 -432 -52 -473 -65 -16
-5 -17 -12 -12 -47 4 -23 8 -43 10 -45 1 -2 56 6 121 17 273 46 403 56 769 55
365 0 505 -10 760 -55 60 -10 115 -19 121 -19 19 0 23 80 4 90 -23 12 -248 48
-411 65 -134 15 -640 28 -719 19z"/>
<path d="M1405 2880 c-26 -10 -61 -49 -70 -78 -9 -32 12 -88 42 -112 17 -13
41 -20 70 -20 36 0 50 6 75 30 19 19 40 30 58 30 30 0 48 21 45 50 -1 8 -3 21
-3 28 -1 7 -17 12 -40 12 -27 0 -41 6 -50 21 -13 20 -70 50 -94 48 -7 0 -22
-4 -33 -9z"/>
<path d="M3590 2883 c-8 -3 -28 -18 -45 -33 -16 -16 -43 -30 -60 -32 -28 -3
-30 -6 -30 -43 0 -37 2 -40 30 -43 16 -2 44 -17 63 -33 74 -65 182 -21 182 75
0 50 -21 83 -66 102 -35 15 -49 16 -74 7z"/>
<path d="M1672 1848 l3 -973 858 -3 857 -2 0 975 0 975 -90 0 -90 0 0 -82 0
-83 -165 0 -165 0 0 83 0 82 -90 0 -90 0 0 -82 0 -83 -165 0 -165 0 0 83 0 82
-90 0 -89 0 -3 -81 -3 -80 -163 -2 -162 -2 0 83 0 82 -95 0 -95 0 2 -972z
m567 423 l296 -288 294 288 294 289 88 0 89 0 0 -89 0 -89 -42 -37 c-24 -21
-157 -151 -296 -289 l-253 -251 295 -288 296 -289 0 -89 0 -89 -88 0 -87 0
-160 161 c-88 88 -222 219 -298 291 l-138 131 -292 -291 -293 -292 -87 0 -87
0 0 88 0 87 290 290 c160 159 290 292 290 296 0 4 -130 135 -290 290 l-290
283 0 88 0 88 86 0 86 0 297 -289z"/>
<path d="M1930 2791 c0 -46 23 -61 94 -61 71 0 86 10 86 57 l0 33 -90 0 -90 0
0 -29z"/>
<path d="M2440 2797 c0 -12 7 -33 16 -45 13 -19 24 -22 78 -22 71 0 86 10 86
57 l0 33 -90 0 c-87 0 -90 -1 -90 -23z"/>
<path d="M2960 2787 c0 -47 15 -57 85 -57 70 0 95 17 95 63 l0 27 -90 0 -90 0
0 -33z"/>
<path d="M1512 2558 c-7 -7 -12 -40 -12 -78 0 -72 10 -90 50 -90 40 0 50 18
50 90 0 72 -10 90 -50 90 -14 0 -31 -5 -38 -12z"/>
<path d="M3477 2564 c-4 -4 -7 -42 -7 -85 0 -75 1 -79 24 -85 56 -14 61 -6 61
86 l0 85 -35 3 c-20 2 -39 0 -43 -4z"/>
<path d="M1510 2301 c-5 -11 -10 -46 -10 -79 0 -69 12 -85 62 -80 l33 3 3 73
c2 46 -2 79 -9 88 -17 21 -66 18 -79 -5z"/>
<path d="M3481 2306 c-7 -9 -11 -42 -9 -88 l3 -73 40 0 40 0 3 79 c3 84 -2 96
-44 96 -12 0 -27 -6 -33 -14z"/>
<path d="M1506 2045 c-9 -24 -7 -128 3 -143 5 -8 23 -12 47 -10 l39 3 0 80 0
80 -41 3 c-31 2 -43 -1 -48 -13z"/>
<path d="M3474 2047 c-3 -8 -4 -45 -2 -83 l3 -69 40 0 40 0 0 80 0 80 -38 3
c-25 2 -39 -1 -43 -11z"/>
<path d="M1512 1798 c-16 -16 -16 -140 0 -156 16 -16 63 -15 77 2 7 9 11 42 9
88 l-3 73 -35 3 c-19 2 -41 -3 -48 -10z"/>
<path d="M3477 1804 c-4 -4 -7 -42 -7 -85 0 -70 2 -78 21 -84 11 -4 32 -4 45
-1 24 6 25 9 22 89 l-3 82 -35 3 c-20 2 -39 0 -43 -4z"/>
<path d="M1512 1548 c-7 -7 -12 -40 -12 -78 0 -75 10 -90 56 -90 39 0 44 11
44 94 0 68 -10 86 -50 86 -14 0 -31 -5 -38 -12z"/>
<path d="M3482 1551 c-9 -5 -12 -30 -10 -87 l3 -79 40 0 40 0 3 79 c3 83 -3
96 -43 96 -11 0 -26 -4 -33 -9z"/>
<path d="M1506 1285 c-9 -24 -7 -128 3 -143 5 -8 23 -12 47 -10 l39 3 0 80 0
80 -41 3 c-31 2 -43 -1 -48 -13z"/>
<path d="M3474 1287 c-3 -8 -4 -45 -2 -83 l3 -69 40 0 40 0 0 80 0 80 -38 3
c-25 2 -39 -1 -43 -11z"/>
<path d="M1512 1038 c-15 -15 -16 -121 -2 -149 13 -23 62 -26 79 -5 7 9 11 42
9 88 l-3 73 -35 3 c-19 2 -41 -3 -48 -10z"/>
<path d="M3474 1037 c-3 -8 -4 -45 -2 -82 3 -76 16 -93 62 -81 27 7 27 7 24
89 l-3 82 -38 3 c-25 2 -39 -1 -43 -11z"/>
</g>
</svg>
