<?xml version="1.0" encoding="UTF-8"?>
<svg xmlns="http://www.w3.org/2000/svg" width="217" height="48" viewBox="0 0 217 48" fill="none">
  <path d="M194.533 7.61484L207.427 22.5398L194.533 37.2617L194.431 45.1811L214.331 22.6413L194.431 0.101562L194.533 7.61484Z" fill="#00393D"></path>
  <path d="M194.532 32.693V13.0977L188.238 22.6415L194.532 32.693Z" fill="#006A71"></path>
  <path d="M209.66 43.2517C209.559 43.5563 209.356 43.8609 209.051 44.064C208.848 44.267 208.544 44.4701 208.239 44.6732C207.934 44.7747 207.528 44.8762 207.122 44.8762C206.716 44.8762 206.411 44.7747 206.005 44.6732C205.701 44.5716 205.396 44.3686 205.193 44.064C204.99 43.8609 204.787 43.5563 204.584 43.2517C204.482 42.9471 204.381 42.541 204.381 42.1349C204.381 41.7288 204.482 41.4242 204.584 41.018C204.685 40.7135 204.889 40.4088 205.193 40.2058C205.396 40.0027 205.701 39.7997 206.005 39.5966C206.31 39.4951 206.716 39.3936 207.122 39.3936C207.528 39.3936 207.833 39.4951 208.239 39.5966C208.544 39.6982 208.848 39.9012 209.051 40.2058C209.254 40.4088 209.457 40.7135 209.66 41.018C209.762 41.3226 209.864 41.7288 209.864 42.1349C209.864 42.541 209.864 42.9471 209.66 43.2517ZM209.254 41.2211C209.153 40.9165 208.95 40.7135 208.747 40.5104C208.544 40.3073 208.341 40.1043 208.036 40.0027C207.731 39.9012 207.427 39.7997 207.122 39.7997C206.818 39.7997 206.513 39.9012 206.208 40.0027C205.904 40.1043 205.701 40.3073 205.498 40.5104C205.295 40.7135 205.092 40.9165 204.99 41.2211C204.889 41.5257 204.787 41.8303 204.787 42.1349C204.787 42.4395 204.889 42.7441 204.99 43.0487C205.092 43.3533 205.295 43.5563 205.498 43.7594C205.701 43.9624 205.904 44.1655 206.208 44.267C206.513 44.3685 206.818 44.4701 207.122 44.4701C207.427 44.4701 207.731 44.3685 208.036 44.267C208.341 44.1655 208.544 43.9624 208.747 43.7594C208.95 43.5563 209.153 43.3533 209.254 43.0487C209.356 42.7441 209.457 42.4395 209.457 42.1349C209.457 41.8303 209.356 41.5257 209.254 41.2211ZM208.239 42.1349C208.138 42.2364 207.934 42.3379 207.833 42.4395L208.442 43.6578H207.833L207.224 42.541H206.615V43.6578H206.107V40.7134H207.427C207.528 40.7134 207.63 40.7134 207.833 40.815C207.934 40.815 208.036 40.9165 208.138 41.018C208.239 41.1196 208.341 41.2211 208.341 41.3226C208.442 41.4242 208.442 41.5257 208.442 41.7287C208.442 41.7287 208.341 41.9318 208.239 42.1349ZM207.833 41.2211C207.731 41.1196 207.63 41.1196 207.528 41.1196H206.716V41.9318H207.528C207.63 41.9318 207.731 41.9318 207.833 41.8303C207.934 41.7287 207.934 41.6272 207.934 41.5257C207.934 41.4242 207.833 41.3226 207.833 41.2211Z" fill="#00393D"></path>
  <path d="M175.343 20.5094C175.039 20.1033 174.531 19.9002 173.719 19.9002C172.5 19.9002 171.891 20.7125 171.688 22.2354H176.054C175.851 21.4232 175.648 20.9155 175.343 20.5094ZM180.623 24.9767C180.623 25.1798 180.623 25.2814 180.623 25.3829H171.688C171.79 26.1951 172.094 26.8043 172.5 27.2104C172.906 27.6166 173.516 27.8196 174.226 27.8196C174.937 27.8196 175.546 27.7181 176.155 27.6165C176.765 27.4135 177.475 27.2104 178.186 26.8043L180.217 30.1548C179.303 30.764 178.288 31.1701 177.272 31.4747C176.257 31.7793 175.14 31.8808 174.023 31.8808C172.906 31.8808 171.891 31.6778 170.977 31.2717C170.064 30.8655 169.353 30.3579 168.744 29.6472C168.134 28.9364 167.728 28.1242 167.424 27.1089C167.119 26.0936 166.916 25.0783 166.916 23.9614C166.916 22.6415 167.119 21.5247 167.424 20.5094C167.728 19.4941 168.236 18.6819 168.845 18.0727C169.454 17.362 170.165 16.9559 171.079 16.5497C171.891 16.2451 172.805 16.0421 173.82 16.0421C175.851 16.0421 177.577 16.7528 178.795 18.0727C180.014 19.3926 180.623 21.5247 180.623 24.3676C180.623 24.6722 180.623 24.8752 180.623 24.9767ZM164.175 29.8502C163.769 30.2564 163.261 30.6625 162.753 30.9671C162.246 31.2717 161.738 31.4747 161.23 31.5762C160.723 31.6778 160.114 31.7793 159.403 31.7793C157.169 31.7793 155.443 31.0686 154.123 29.7487C152.905 28.4288 152.194 26.3982 152.194 23.8599C152.194 22.7431 152.296 21.6263 152.6 20.7125C152.905 19.7987 153.311 18.8849 153.92 18.2758C154.529 17.6666 155.24 17.0574 156.154 16.6513C157.068 16.2451 158.083 16.0421 159.301 16.0421C160.012 16.0421 160.621 16.1436 161.23 16.2451C161.84 16.3467 162.347 16.6513 162.753 16.9558C163.261 17.2604 163.667 17.6666 164.073 18.0727C164.479 18.4788 164.784 18.9865 165.19 19.4941L161.637 22.2354C161.23 21.5247 160.926 21.0171 160.621 20.7125C160.317 20.4079 159.91 20.2048 159.301 20.2048C158.591 20.2048 158.083 20.5094 157.778 21.1186C157.474 21.7278 157.271 22.6416 157.271 23.8599C157.271 26.2967 157.981 27.515 159.403 27.515C159.91 27.515 160.317 27.4135 160.723 27.1089C161.129 26.8043 161.535 26.2966 162.043 25.5859L165.292 28.1242C164.987 28.8349 164.581 29.4441 164.175 29.8502ZM144.478 31.5762V22.9461C144.478 21.9308 144.275 21.3217 143.97 21.0171C143.666 20.7125 143.259 20.5094 142.65 20.5094C142.041 20.5094 141.635 20.7125 141.33 21.0171C141.026 21.3217 140.823 22.0324 140.823 22.9461V31.5762H135.645V16.4482H140.823V17.4635C141.33 17.0574 141.838 16.7528 142.447 16.5497C143.056 16.3467 143.767 16.1436 144.681 16.1436C146.407 16.1436 147.625 16.6513 148.438 17.7681C149.25 18.8849 149.656 20.4079 149.656 22.337V31.5762H144.478ZM127.725 25.3829C127.421 25.2814 127.116 25.1798 126.812 25.0783C126.507 24.9768 125.999 24.9767 125.492 24.9767C124.375 24.9767 123.867 25.4844 123.867 26.6012C123.867 27.1089 123.969 27.515 124.273 27.8196C124.578 28.1242 124.984 28.3273 125.492 28.3273C125.898 28.3273 126.304 28.2257 126.71 28.1242C127.116 28.0227 127.421 27.8196 127.725 27.6165V25.3829ZM127.725 31.5762V30.5609C127.218 30.967 126.608 31.2717 125.999 31.4747C125.39 31.6778 124.679 31.8808 123.969 31.8808C122.446 31.8808 121.329 31.4747 120.415 30.5609C119.501 29.6472 119.095 28.3273 119.095 26.7028C119.095 25.8905 119.197 25.1798 119.501 24.5706C119.806 23.9614 120.111 23.4538 120.618 23.0477C121.126 22.6416 121.633 22.337 122.344 22.1339C123.055 21.9308 123.766 21.8293 124.578 21.8293C125.289 21.8293 125.898 21.9308 126.304 22.0324C126.812 22.1339 127.218 22.337 127.725 22.54V21.6263C127.725 20.9155 127.522 20.5094 127.218 20.2048C126.812 19.9002 126.304 19.7987 125.593 19.7987C124.781 19.7987 124.07 19.9002 123.461 20.0018C122.852 20.2048 122.141 20.4079 121.43 20.814L120.111 17.362C121.024 16.9558 122.04 16.5497 123.055 16.3467C124.07 16.1436 125.289 15.9405 126.608 15.9405C128.741 15.9405 130.264 16.4482 131.279 17.4635C132.294 18.4788 132.7 19.7987 132.7 21.6263V31.4747H127.725V31.5762ZM111.074 31.5762V16.4482H116.252V31.5762H111.074ZM115.948 14.6207C115.339 15.0268 114.628 15.3314 113.714 15.3314C112.8 15.3314 112.09 15.1283 111.582 14.6207C110.973 14.2145 110.77 13.5038 110.77 12.6916C110.77 11.9809 111.074 11.3717 111.582 10.864C112.09 10.3564 112.902 10.1533 113.714 10.1533C114.628 10.1533 115.339 10.3564 115.948 10.864C116.455 11.3717 116.76 11.9809 116.76 12.6916C116.76 13.5038 116.455 14.113 115.948 14.6207ZM102.343 31.5762V12.59L107.521 10.5594V31.5762H102.343ZM93.7126 31.5762V12.59L98.8907 10.5594V31.5762H93.7126ZM82.1381 22.2354C81.9351 21.6263 81.8335 21.0171 81.6305 20.5094C81.5289 20.0018 81.3259 19.5956 81.2243 19.1895C81.1228 18.7834 81.0213 18.4788 80.9198 18.1742C80.8182 17.8696 80.8182 17.565 80.7167 17.1589C80.6152 17.4635 80.6152 17.8696 80.5136 18.1742C80.4121 18.4788 80.3106 18.8849 80.209 19.2911C80.1075 19.6972 80.006 20.1033 79.8029 20.6109C79.7014 21.1186 79.4983 21.6263 79.2953 22.2354L78.8892 23.5553H82.2397L82.1381 22.2354ZM84.981 31.5762L83.8642 28.0227H77.7723L76.6555 31.5762H70.6652L77.9754 11.3717H83.6611L90.9713 31.5762H84.981ZM54.1157 20.5094C53.8111 20.1033 53.3035 19.9002 52.4912 19.9002C51.2729 19.9002 50.6637 20.7125 50.4606 22.2354H54.8264C54.6234 21.4232 54.4203 20.9155 54.1157 20.5094ZM59.3953 24.9767C59.3953 25.1798 59.3953 25.2814 59.3953 25.3829H50.4606C50.5621 26.1951 50.8667 26.8043 51.2729 27.2104C51.679 27.6166 52.2882 27.8196 52.9989 27.8196C53.7096 27.8196 54.3188 27.7181 54.928 27.6165C55.5371 27.4135 56.2479 27.2104 56.9586 26.8043L58.9892 30.1548C58.0754 30.764 57.0601 31.1701 56.0448 31.4747C55.0295 31.7793 53.9127 31.8808 52.7958 31.8808C51.679 31.8808 50.6637 31.6778 49.7499 31.2717C48.8361 30.8655 48.1254 30.3579 47.5162 29.6472C46.9071 28.9364 46.5009 28.1242 46.1963 27.1089C45.8917 26.0936 45.6887 25.0783 45.6887 23.9614C45.6887 22.6415 45.8917 21.5247 46.1963 20.5094C46.5009 19.4941 47.0086 18.6819 47.6178 18.0727C48.2269 17.362 48.9377 16.9559 49.8514 16.5497C50.6637 16.2451 51.5775 16.0421 52.5928 16.0421C54.6234 16.0421 56.3494 16.7528 57.5677 18.0727C58.7861 19.3926 59.3953 21.5247 59.3953 24.3676C59.3953 24.6722 59.3953 24.8752 59.3953 24.9767ZM37.9724 31.5762V22.9461C37.9724 21.9308 37.7693 21.3217 37.4647 21.0171C37.1601 20.7125 36.754 20.5094 36.1448 20.5094C35.5356 20.5094 35.1295 20.7125 34.8249 21.0171C34.5203 21.3217 34.3173 22.0324 34.3173 22.9461V31.5762H29.1392V12.59L34.3173 10.5594V17.4635C34.8249 17.0574 35.3326 16.7528 35.9417 16.5497C36.5509 16.3467 37.2617 16.1436 38.1754 16.1436C39.9014 16.1436 41.1198 16.6513 41.9321 17.7681C42.7443 18.8849 43.1504 20.4079 43.1504 22.337V31.5762H37.9724ZM21.2198 16.2451V31.5762H15.6356V16.2451H9.94995V11.3717H26.9055V16.2451H21.2198Z" fill="#006A71"></path>
  <path d="M78.846 43.2471C78.846 43.6251 78.7803 43.9709 78.6488 44.2845C78.5256 44.5982 78.3325 44.8676 78.0696 45.0927C77.8149 45.3179 77.4862 45.4948 77.0837 45.6235C76.6811 45.7441 76.2045 45.8044 75.6541 45.8044C75.0214 45.8044 74.4422 45.6838 73.9163 45.4426C73.3987 45.1933 72.9551 44.8595 72.5853 44.4413L73.5096 43.5608C73.7972 43.8663 74.1382 44.1116 74.5325 44.2966C74.9351 44.4735 75.3418 44.562 75.7526 44.562C76.944 44.562 77.5397 44.1518 77.5397 43.3316C77.5397 43.1707 77.5068 43.026 77.4411 42.8973C77.3753 42.7686 77.2644 42.652 77.1083 42.5475C76.9522 42.4349 76.7509 42.3303 76.5044 42.2338C76.2579 42.1373 75.9539 42.0368 75.5924 41.9323C75.1323 41.8036 74.7338 41.6709 74.397 41.5342C74.0601 41.3975 73.7808 41.2407 73.5589 41.0637C73.3371 40.8788 73.1687 40.6576 73.0536 40.4003C72.9468 40.1429 72.8934 39.8253 72.8934 39.4473C72.8934 39.0854 72.9674 38.7597 73.1153 38.4702C73.2632 38.1727 73.4645 37.9234 73.7192 37.7223C73.9739 37.5213 74.2737 37.3685 74.6188 37.2639C74.9721 37.1514 75.3459 37.0951 75.7403 37.0951C76.3319 37.0951 76.8536 37.1956 77.3055 37.3966C77.7574 37.5977 78.1764 37.8791 78.5626 38.241L77.6506 39.1457C77.3794 38.8723 77.0837 38.6713 76.7632 38.5426C76.4428 38.4059 76.069 38.3375 75.6417 38.3375C75.1323 38.3375 74.7626 38.4421 74.5325 38.6512C74.3107 38.8603 74.1998 39.1055 74.1998 39.387C74.1998 39.5318 74.2286 39.6644 74.2861 39.7851C74.3436 39.8977 74.4422 40.0062 74.5818 40.1108C74.7215 40.2073 74.9146 40.3038 75.1611 40.4003C75.4076 40.4968 75.7157 40.5973 76.0854 40.7019C76.5126 40.8305 76.8947 40.9632 77.2315 41.0999C77.5766 41.2366 77.8683 41.4015 78.1066 41.5945C78.3448 41.7875 78.5256 42.0167 78.6488 42.2821C78.7803 42.5475 78.846 42.8691 78.846 43.2471Z" fill="#314F50"></path>
  <path d="M85.7255 42.3786C85.7255 42.4912 85.7214 42.5997 85.7132 42.7043C85.705 42.8008 85.6968 42.8812 85.6885 42.9455H81.412C81.4449 43.2511 81.5106 43.5125 81.6092 43.7296C81.7078 43.9468 81.8311 44.1277 81.979 44.2725C82.1269 44.4092 82.2912 44.5137 82.4719 44.5861C82.6527 44.6504 82.8417 44.6826 83.0388 44.6826C83.31 44.6826 83.5565 44.6384 83.7783 44.5499C84.0083 44.4614 84.2302 44.3368 84.4438 44.176L85.1956 44.9721C84.908 45.2375 84.5876 45.4426 84.2343 45.5873C83.881 45.7321 83.4579 45.8044 82.9649 45.8044C82.587 45.8044 82.2254 45.7321 81.8804 45.5873C81.5435 45.4426 81.2477 45.2294 80.993 44.948C80.7383 44.6665 80.537 44.3207 80.3891 43.9106C80.2413 43.5004 80.1673 43.034 80.1673 42.5113C80.1673 41.9725 80.2371 41.498 80.3768 41.0879C80.5165 40.6777 80.7096 40.3359 80.9561 40.0625C81.2025 39.7811 81.4983 39.5679 81.8434 39.4232C82.1967 39.2784 82.5828 39.2061 83.0019 39.2061C83.462 39.2061 83.8605 39.2905 84.1973 39.4594C84.5424 39.6283 84.8259 39.8575 85.0477 40.147C85.2777 40.4365 85.4462 40.7742 85.553 41.1602C85.668 41.5463 85.7255 41.9524 85.7255 42.3786ZM84.4438 41.9202C84.4274 41.7031 84.3863 41.498 84.3206 41.305C84.263 41.112 84.1727 40.9431 84.0494 40.7984C83.9262 40.6536 83.7701 40.541 83.5811 40.4606C83.4004 40.3721 83.1785 40.3279 82.9156 40.3279C82.4884 40.3279 82.1474 40.4686 81.8927 40.7501C81.6462 41.0235 81.4942 41.4136 81.4367 41.9202H84.4438Z" fill="#314F50"></path>
  <path d="M87.3611 45.6718V37.5293L88.6305 36.8779V45.6718H87.3611Z" fill="#314F50"></path>
  <path d="M93.5928 38.1204C93.3134 38.04 93.0669 37.9998 92.8533 37.9998C92.6397 37.9998 92.4877 38.044 92.3973 38.1325C92.307 38.2209 92.2618 38.3818 92.2618 38.615V39.3388H93.4572V40.4968H92.2618V45.6718H90.9924V40.4968H90.1543V39.3388H90.9924V38.5064C90.9924 38.2169 91.0335 37.9716 91.1156 37.7706C91.206 37.5695 91.3251 37.4047 91.473 37.276C91.6209 37.1473 91.7934 37.0549 91.9906 36.9986C92.1878 36.9423 92.4014 36.9141 92.6315 36.9141C92.7958 36.9141 92.9601 36.9262 93.1245 36.9503C93.297 36.9664 93.4531 36.9945 93.5928 37.0347V38.1204Z" fill="#314F50"></path>
  <path d="M94.647 41.872V40.6415H97.728V41.872H94.647Z" fill="#314F50"></path>
  <path d="M100.826 38.4702V40.6777H103.303V41.9202H100.826V45.6718H99.5317V37.2278H105.09V38.4702H100.826Z" fill="#314F50"></path>
  <path d="M109.415 45.6718V45.0686C109.251 45.3018 109.021 45.4828 108.725 45.6114C108.437 45.7401 108.125 45.8044 107.788 45.8044C107.032 45.8044 106.457 45.5672 106.063 45.0927C105.677 44.6183 105.484 43.9106 105.484 42.9697V39.3388H106.753V42.9214C106.753 43.5648 106.868 44.0151 107.098 44.2725C107.336 44.5298 107.665 44.6585 108.084 44.6585C108.511 44.6585 108.84 44.5177 109.07 44.2363C109.3 43.9548 109.415 43.5567 109.415 43.042V39.3388H110.685V45.6718H109.415Z" fill="#314F50"></path>
  <path d="M116.493 45.6718V42.0891C116.493 41.4457 116.374 40.9954 116.136 40.738C115.906 40.4807 115.581 40.352 115.162 40.352C114.735 40.352 114.406 40.4928 114.176 40.7742C113.946 41.0557 113.831 41.4538 113.831 41.9685V45.6718H112.562V39.3388H113.831V39.9419C113.995 39.7087 114.221 39.5277 114.509 39.3991C114.805 39.2704 115.121 39.2061 115.458 39.2061C116.214 39.2061 116.785 39.4433 117.171 39.9178C117.565 40.3922 117.762 41.0999 117.762 42.0408V45.6718H116.493Z" fill="#314F50"></path>
  <path d="M123.485 45.6718V45.0686C123.246 45.2777 122.992 45.4546 122.721 45.5994C122.449 45.7361 122.141 45.8044 121.796 45.8044C121.451 45.8044 121.127 45.7401 120.823 45.6114C120.519 45.4828 120.252 45.2817 120.022 45.0083C119.8 44.7349 119.623 44.385 119.492 43.9588C119.368 43.5246 119.307 43.0059 119.307 42.4027C119.307 41.8639 119.377 41.3935 119.516 40.9914C119.656 40.5893 119.841 40.2555 120.071 39.9901C120.309 39.7248 120.58 39.5277 120.884 39.3991C121.197 39.2704 121.521 39.2061 121.858 39.2061C122.187 39.2061 122.495 39.2784 122.782 39.4232C123.07 39.5679 123.304 39.7368 123.485 39.9298V37.5173L124.742 36.8779V45.6718H123.485ZM123.497 41.1844C123.423 41.0879 123.333 40.9914 123.226 40.8949C123.119 40.7984 123 40.7099 122.869 40.6295C122.737 40.5491 122.593 40.4847 122.437 40.4365C122.289 40.3802 122.137 40.352 121.981 40.352C121.521 40.352 121.172 40.5209 120.934 40.8587C120.695 41.1884 120.576 41.691 120.576 42.3665C120.576 43.1707 120.699 43.7538 120.946 44.1156C121.201 44.4775 121.562 44.6585 122.03 44.6585C122.334 44.6585 122.614 44.5781 122.869 44.4172C123.123 44.2483 123.333 44.0593 123.497 43.8503V41.1844Z" fill="#314F50"></path>
  <path d="M128.135 37.7223C128.135 37.9395 128.053 38.1284 127.888 38.2893C127.732 38.4421 127.543 38.5185 127.321 38.5185C127.091 38.5185 126.894 38.4421 126.73 38.2893C126.574 38.1284 126.496 37.9395 126.496 37.7223C126.496 37.4972 126.574 37.3082 126.73 37.1554C126.894 36.9945 127.091 36.9141 127.321 36.9141C127.543 36.9141 127.732 36.9945 127.888 37.1554C128.053 37.3082 128.135 37.4972 128.135 37.7223ZM126.681 45.6718V39.3388H127.95V45.6718H126.681Z" fill="#314F50"></path>
  <path d="M133.812 45.6718V42.0891C133.812 41.4457 133.693 40.9954 133.455 40.738C133.224 40.4807 132.9 40.352 132.481 40.352C132.054 40.352 131.725 40.4928 131.495 40.7742C131.265 41.0557 131.15 41.4538 131.15 41.9685V45.6718H129.881V39.3388H131.15V39.9419C131.314 39.7087 131.54 39.5277 131.828 39.3991C132.124 39.2704 132.44 39.2061 132.777 39.2061C133.533 39.2061 134.104 39.4433 134.49 39.9178C134.884 40.3922 135.081 41.0999 135.081 42.0408V45.6718H133.812Z" fill="#314F50"></path>
  <path d="M142.061 45.0686C142.061 45.5511 142.011 45.9693 141.913 46.3231C141.814 46.685 141.646 46.9866 141.407 47.2279C141.177 47.4691 140.865 47.6541 140.471 47.7828C140.076 47.9114 139.588 47.9838 139.004 47.9999L138.573 47.059C139.025 47.0349 139.395 46.9866 139.682 46.9142C139.978 46.8418 140.204 46.7293 140.36 46.5765C140.524 46.4317 140.635 46.2427 140.693 46.0095C140.758 45.7843 140.791 45.5069 140.791 45.1772V45.0686C140.553 45.2777 140.298 45.4546 140.027 45.5994C139.764 45.7361 139.46 45.8044 139.115 45.8044C138.77 45.8044 138.446 45.7401 138.142 45.6114C137.838 45.4828 137.575 45.2817 137.353 45.0083C137.131 44.7349 136.954 44.385 136.823 43.9588C136.691 43.5246 136.626 43.0059 136.626 42.4027C136.626 41.8639 136.696 41.3935 136.835 40.9914C136.975 40.5893 137.164 40.2555 137.402 39.9901C137.64 39.7248 137.912 39.5277 138.216 39.3991C138.52 39.2704 138.84 39.2061 139.177 39.2061C139.505 39.2061 139.814 39.2784 140.101 39.4232C140.389 39.5679 140.619 39.7368 140.791 39.9298V39.3388H142.061V45.0686ZM140.816 41.1844C140.742 41.0879 140.652 40.9914 140.545 40.8949C140.438 40.7984 140.319 40.7099 140.187 40.6295C140.056 40.5491 139.912 40.4847 139.756 40.4365C139.608 40.3802 139.456 40.352 139.3 40.352C138.84 40.352 138.491 40.5209 138.252 40.8587C138.014 41.1884 137.895 41.691 137.895 42.3665C137.895 43.1707 138.018 43.7538 138.265 44.1156C138.52 44.4775 138.881 44.6585 139.349 44.6585C139.653 44.6585 139.933 44.5781 140.187 44.4172C140.442 44.2483 140.652 44.0593 140.816 43.8503V41.1844Z" fill="#314F50"></path>
  <path d="M153.224 43.2471C153.224 43.6251 153.159 43.9709 153.027 44.2845C152.904 44.5982 152.711 44.8676 152.448 45.0927C152.193 45.3179 151.865 45.4948 151.462 45.6235C151.059 45.7441 150.583 45.8044 150.032 45.8044C149.4 45.8044 148.821 45.6838 148.295 45.4426C147.777 45.1933 147.333 44.8595 146.964 44.4413L147.888 43.5608C148.176 43.8663 148.517 44.1116 148.911 44.2966C149.314 44.4735 149.72 44.562 150.131 44.562C151.322 44.562 151.918 44.1518 151.918 43.3316C151.918 43.1707 151.885 43.026 151.819 42.8973C151.754 42.7686 151.643 42.652 151.487 42.5475C151.331 42.4349 151.129 42.3303 150.883 42.2338C150.636 42.1373 150.332 42.0368 149.971 41.9323C149.511 41.8036 149.112 41.6709 148.775 41.5342C148.439 41.3975 148.159 41.2407 147.937 41.0637C147.716 40.8788 147.547 40.6576 147.432 40.4003C147.325 40.1429 147.272 39.8253 147.272 39.4473C147.272 39.0854 147.346 38.7597 147.494 38.4702C147.642 38.1727 147.843 37.9234 148.098 37.7223C148.352 37.5213 148.652 37.3685 148.997 37.2639C149.351 37.1514 149.724 37.0951 150.119 37.0951C150.71 37.0951 151.232 37.1956 151.684 37.3966C152.136 37.5977 152.555 37.8791 152.941 38.241L152.029 39.1457C151.758 38.8723 151.462 38.6713 151.142 38.5426C150.821 38.4059 150.447 38.3375 150.02 38.3375C149.511 38.3375 149.141 38.4421 148.911 38.6512C148.689 38.8603 148.578 39.1055 148.578 39.387C148.578 39.5318 148.607 39.6644 148.664 39.7851C148.722 39.8977 148.821 40.0062 148.96 40.1108C149.1 40.2073 149.293 40.3038 149.54 40.4003C149.786 40.4968 150.094 40.5973 150.464 40.7019C150.891 40.8305 151.273 40.9632 151.61 41.0999C151.955 41.2366 152.247 41.4015 152.485 41.5945C152.723 41.7875 152.904 42.0167 153.027 42.2821C153.159 42.5475 153.224 42.8691 153.224 43.2471Z" fill="#314F50"></path>
  <path d="M162.492 45.6718V42.0891C162.492 41.4457 162.389 40.9954 162.184 40.738C161.978 40.4807 161.666 40.352 161.247 40.352C160.82 40.352 160.504 40.4928 160.298 40.7742C160.101 41.0557 160.002 41.4538 160.002 41.9685V45.6718H158.733V42.0891C158.733 41.4457 158.63 40.9954 158.425 40.738C158.22 40.4807 157.907 40.352 157.488 40.352C157.061 40.352 156.745 40.4928 156.539 40.7742C156.342 41.0557 156.244 41.4538 156.244 41.9685V45.6718H154.974V39.3388H156.244V39.9419C156.408 39.7087 156.622 39.5277 156.884 39.3991C157.147 39.2704 157.447 39.2061 157.784 39.2061C158.228 39.2061 158.589 39.2865 158.869 39.4473C159.156 39.6001 159.386 39.8293 159.559 40.1349C159.674 39.9901 159.793 39.8615 159.916 39.7489C160.048 39.6363 160.191 39.5398 160.348 39.4594C160.504 39.379 160.676 39.3186 160.865 39.2784C161.062 39.2302 161.288 39.2061 161.543 39.2061C162.299 39.2061 162.858 39.4433 163.219 39.9178C163.581 40.3922 163.761 41.0999 163.761 42.0408V45.6718H162.492Z" fill="#314F50"></path>
  <path d="M169.299 45.6718V45.0445C169.077 45.2616 168.814 45.4426 168.51 45.5873C168.206 45.7321 167.878 45.8044 167.524 45.8044C167.261 45.8044 166.994 45.7642 166.723 45.6838C166.46 45.6114 166.222 45.4908 166.008 45.3219C165.795 45.153 165.618 44.9319 165.478 44.6585C165.347 44.385 165.281 44.0553 165.281 43.6693C165.281 43.3155 165.347 43.0099 165.478 42.7525C165.61 42.4952 165.791 42.2821 166.021 42.1132C166.251 41.9443 166.522 41.8197 166.834 41.7393C167.146 41.6588 167.487 41.6186 167.857 41.6186C168.449 41.6186 168.929 41.6991 169.299 41.8599V41.3894C169.299 41.0436 169.192 40.7783 168.979 40.5933C168.773 40.4083 168.473 40.3158 168.079 40.3158C167.742 40.3158 167.438 40.348 167.167 40.4123C166.904 40.4767 166.645 40.5772 166.39 40.7139L165.897 39.773C166.21 39.5881 166.542 39.4473 166.896 39.3508C167.249 39.2543 167.656 39.2061 168.116 39.2061C168.839 39.2061 169.422 39.383 169.866 39.7368C170.318 40.0826 170.544 40.6134 170.544 41.3291V45.6718H169.299ZM169.299 42.9697C169.126 42.8812 168.921 42.8129 168.683 42.7646C168.453 42.7164 168.165 42.6922 167.82 42.6922C167.409 42.6922 167.085 42.7767 166.846 42.9455C166.608 43.1144 166.489 43.3436 166.489 43.6331C166.489 43.9468 166.592 44.2001 166.797 44.3931C167.003 44.5861 167.315 44.6826 167.734 44.6826C168.079 44.6826 168.387 44.5982 168.658 44.4293C168.937 44.2604 169.151 44.0754 169.299 43.8744V42.9697Z" fill="#314F50"></path>
  <path d="M175.878 40.6536C175.738 40.5812 175.594 40.5249 175.446 40.4847C175.298 40.4445 175.118 40.4244 174.904 40.4244C174.501 40.4244 174.189 40.5611 173.967 40.8345C173.746 41.108 173.635 41.5141 173.635 42.0529V45.6718H172.365V39.3388H173.635V39.9419C173.783 39.7328 173.984 39.5599 174.239 39.4232C174.501 39.2784 174.793 39.2061 175.114 39.2061C175.376 39.2061 175.59 39.2302 175.754 39.2784C175.927 39.3186 176.079 39.383 176.21 39.4714L175.878 40.6536Z" fill="#314F50"></path>
  <path d="M180.73 45.5149C180.574 45.6034 180.389 45.6718 180.176 45.72C179.97 45.7763 179.74 45.8044 179.485 45.8044C179.033 45.8044 178.676 45.6677 178.413 45.3943C178.158 45.1209 178.031 44.6987 178.031 44.1277V40.4727H177.107V39.3388H178.031V37.5293L179.276 36.8779V39.3388H180.878V40.4727H179.276V43.9106C179.276 44.2081 179.325 44.4092 179.424 44.5137C179.531 44.6183 179.703 44.6705 179.941 44.6705C180.106 44.6705 180.274 44.6464 180.447 44.5982C180.619 44.5419 180.763 44.4815 180.878 44.4172L180.73 45.5149Z" fill="#314F50"></path>
</svg>
